<?xml version="1.0" standalone="no"?>
<!DOCTYPE svg PUBLIC "-//W3C//DTD SVG 1.1//EN" "http://www.w3.org/Graphics/SVG/1.1/DTD/svg11.dtd" >
<svg xmlns="http://www.w3.org/2000/svg">
<metadata>
Created by FontForge 20120731 at Fri Dec 30 14:46:56 2016
 By admin
</metadata>
<defs>
<font id="iconfont" horiz-adv-x="1024" >
  <font-face 
    font-family="iconfont"
    font-weight="500"
    font-stretch="normal"
    units-per-em="1024"
    panose-1="2 0 6 3 0 0 0 0 0 0"
    ascent="896"
    descent="-128"
    x-height="792"
    bbox="-1 -224 1431.6 912"
    underline-thickness="0"
    underline-position="0"
    unicode-range="U+0078-E834"
  />
<missing-glyph 
 />
    <glyph glyph-name=".notdef" 
 />
    <glyph glyph-name=".notdef" 
 />
    <glyph glyph-name=".null" horiz-adv-x="0" 
 />
    <glyph glyph-name="nonmarkingreturn" horiz-adv-x="341" 
 />
    <glyph glyph-name="x" unicode="x" horiz-adv-x="1001" 
d="M281 543q-27 -1 -53 -1h-83q-18 0 -36.5 -6t-32.5 -18.5t-23 -32t-9 -45.5v-76h912v41q0 16 -0.5 30t-0.5 18q0 13 -5 29t-17 29.5t-31.5 22.5t-49.5 9h-133v-97h-438v97zM955 310v-52q0 -23 0.5 -52t0.5 -58t-10.5 -47.5t-26 -30t-33 -16t-31.5 -4.5q-14 -1 -29.5 -0.5
t-29.5 0.5h-32l-45 128h-439l-44 -128h-29h-34q-20 0 -45 1q-25 0 -41 9.5t-25.5 23t-13.5 29.5t-4 30v167h911zM163 247q-12 0 -21 -8.5t-9 -21.5t9 -21.5t21 -8.5q13 0 22 8.5t9 21.5t-9 21.5t-22 8.5zM316 123q-8 -26 -14 -48q-5 -19 -10.5 -37t-7.5 -25t-3 -15t1 -14.5
t9.5 -10.5t21.5 -4h37h67h81h80h64h36q23 0 34 12t2 38q-5 13 -9.5 30.5t-9.5 34.5q-5 19 -11 39h-368zM336 498v228q0 11 2.5 23t10 21.5t20.5 15.5t34 6h188q31 0 51.5 -14.5t20.5 -52.5v-227h-327z" />
    <glyph glyph-name="bangzhu" unicode="&#xe69e;" 
d="M514 842q95 0 178.5 -36.5t146 -98.5t98.5 -145.5t36 -178.5t-36 -178t-98.5 -145.5t-146 -98.5t-178.5 -36t-178 36t-145.5 98.5t-98.5 145.5t-36 178t36 178.5t98.5 145.5t145.5 98.5t178 36.5zM515 70q27 0 45 17.5t18 43.5q0 27 -18 45t-45 18t-44.5 -18t-17.5 -45
q0 -26 17.5 -43.5t44.5 -17.5zM567 322q-1 16 20.5 34.5t48.5 41t49.5 50.5t24.5 65q2 40 -8.5 75t-34 60t-61 39.5t-87.5 14.5q-62 0 -103.5 -22t-67 -53t-36 -64.5t-9.5 -55.5q1 -27 17 -39t34.5 -12.5t33.5 10t15 31.5q0 12 8 30t21 34.5t32 27.5t43 11q46 0 73.5 -23
t25.5 -58q0 -17 -10 -32t-26 -29t-34 -27.5t-34 -28.5t-26.5 -32.5t-11.5 -37.5l1 -39q0 -15 14.5 -29t37.5 -15q24 1 37.5 15.5t12.5 32.5v25z" />
    <glyph glyph-name="plus" unicode="&#xe632;" horiz-adv-x="1001" 
d="M1017 532h-401v380h-198v-380h-402v-238h402v-381h198v381h401v238z" />
    <glyph glyph-name="gaoduanyiqi" unicode="&#xe644;" 
d="M761 648h-215q-11 0 -19 -8t-8 -20v-118q0 -11 8 -19.5t19 -8.5h87v-19l-38 -23h117l-37 23v19h86q12 0 19.5 8.5t7.5 19.5v118q0 12 -7.5 20t-19.5 8zM918 419q0 7 -5 12.5t-11 5.5h-779q-7 0 -12 -5.5t-5 -12.5v-17q0 -7 5 -12t12 -5h16q7 0 12 -5.5t5 -12.5v-401
q0 -7 5 -12t12 -5h17q7 0 12 5t5 12v401q0 7 5 12.5t12 5.5h576q7 0 12 -5.5t5 -12.5v-401q0 -7 5 -12t12 -5h17q7 0 12 5t5 12v401q0 7 5 12.5t12 5.5h17q6 0 11 5t5 12v17zM463 235q0 -5 -4.5 -9.5t-10.5 -4.5h-173q-6 0 -10 4.5t-4 9.5v76q0 6 4 10t10 4h173q6 0 10.5 -4
t4.5 -10v-76zM767 12q0 -6 -4.5 -10.5t-10.5 -4.5h-173q-6 0 -10.5 4.5t-4.5 10.5v299q0 6 4.5 10t10.5 4h173q6 0 10.5 -4t4.5 -10v-299zM463 79q0 -6 -4.5 -10t-10.5 -4h-173q-6 0 -10 4t-4 10v75q0 6 4 10.5t10 4.5h173q6 0 10.5 -4.5t4.5 -10.5v-75zM311 503q6 16 4 33
l-2 18q-1 7 -6.5 12t-12.5 5h-22h-2h-22q-7 0 -12.5 -5t-6.5 -12l-2 -18q-2 -17 4 -33l7 -18q6 -17 1 -33l-3 -13q-2 -7 1.5 -11.5t10.5 -4.5h22h2h22q7 0 10.5 4.5t1.5 11.5l-3 13q-5 16 1 33z" />
    <glyph glyph-name="qiapian" unicode="&#xe63f;" 
d="M785 575q0 30 -26 51.5t-63 21.5h-531q-36 0 -62 -29t-26 -71v-349q0 -41 24 -70.5t58 -29.5q37 0 45.5 3.5t8.5 22.5q0 11 -1 15.5t-7 7.5t-20 3q-23 0 -39 29.5t-16 70.5v141h66q7 0 12.5 5.5t5.5 13.5v52q0 8 -5.5 13.5t-12.5 5.5h-66v14q0 41 26 70.5t62 29.5h425
q37 0 63 -14t26 -33q0 -18 5.5 -23.5t20.5 -5.5q19 0 23 8.5t4 36.5v10zM947 398q0 41 -26 70t-62 29h-531q-37 0 -63 -29t-26 -70v-350q0 -41 26 -70t63 -29h531q36 0 62 29t26 70v350zM874 349q0 -10 -6.5 -17.5t-15.5 -7.5h-117q-9 0 -15.5 7.5t-6.5 17.5v70
q0 10 6.5 17.5t15.5 7.5h117q9 0 15.5 -7.5t6.5 -17.5v-70zM421 50q0 -9 -4 -16t-9 -7h-96q-5 0 -9 7t-4 16v3q0 10 4 16.5t9 6.5h96q5 0 9 -6.5t4 -16.5v-3zM573 50q0 -9 -3.5 -16t-9.5 -7h-95q-6 0 -9.5 7t-3.5 16v3q0 10 3.5 16.5t9.5 6.5h95q6 0 9.5 -6.5t3.5 -16.5v-3z
M726 50q0 -9 -4 -16t-9 -7h-96q-5 0 -9 7t-4 16v3q0 10 4 16.5t9 6.5h96q5 0 9 -6.5t4 -16.5v-3zM878 50q0 -9 -3.5 -16t-9.5 -7h-95q-6 0 -9.5 7t-3.5 16v3q0 10 3.5 16.5t9.5 6.5h95q6 0 9.5 -6.5t3.5 -16.5v-3z" />
    <glyph glyph-name="fangwu" unicode="&#xe66a;" 
d="M174 135v-338h254v254h169v-254h254v338l-339 339zM512 812v0v0l-507 -507l85 -85l422 423l423 -423l85 85z" />
    <glyph glyph-name="shezhi" unicode="&#xe63c;" 
d="M512 395h10.5t23 -5t29 -14t23 -29t9.5 -47q-1 -1 1 -10t-3.5 -23.5t-13 -28t-28.5 -23.5t-51 -10q-4 0 -10.5 1t-23 7t-29.5 15.5t-23.5 28.5t-10.5 43q1 4 1.5 10.5t6.5 23t15.5 29t29 22.5t44.5 10zM879 395h94q2 0 5 -1t11 -5t14.5 -9t11.5 -14.5t5 -20.5v-91v-5.5
t-2 -12t-5 -15t-9.5 -11.5t-16.5 -5h-108q-2 -4 0 -14t-6.5 -34.5t-26.5 -47.5l62 -66q1 -2 3.5 -6t7.5 -16t6.5 -23t-2.5 -24.5t-15 -23.5l-47 -49q-2 -1 -6 -4t-16 -8t-23 -6.5t-25 2.5t-25 16l-63 64q-5 -4 -13.5 -10.5t-33.5 -16t-48 -6.5v-89q-1 -2 -2 -5.5t-5.5 -12.5
t-11 -15.5t-18.5 -12.5t-26 -6h-77q-2 0 -5.5 0.5t-13 2t-16.5 4.5t-12.5 10t-5.5 17v109q-7 0 -19 1t-37 9t-38 22l-65 -63q-2 -2 -5.5 -4.5t-14.5 -8t-22 -7t-25 2.5t-27 17l-47 46q-2 2 -4 6t-6 15t-5.5 22t2 25.5t13.5 26.5l63 68q-4 4 -10 10.5t-15.5 31t-6.5 51.5
h-109h-4t-8 3t-10 8t-8 15t-4 24v91q1 1 0 5.5t2 12t7.5 14.5t15.5 12t27 5h95l138 -95q1 0 0 -7.5t1.5 -20.5t4 -30t9.5 -35.5t18 -37t27.5 -35.5t39.5 -30t54 -21t70 -8h12t31 3t44 10t47 23t44.5 38.5t31 60t12.5 85.5zM150 395q-1 6 -2 15.5t6 35t26 45.5l-65 62
q-4 6 -8.5 16t-5.5 35.5t14 45.5l51 47q2 2 5.5 5t13.5 8.5t20 7t24 -3t27 -17.5l64 -63q4 3 11.5 8.5t32 15t51.5 9.5v90q1 2 1.5 5.5t4 12.5t8.5 15.5t15 12t23 5.5h94q2 0 5 -0.5t11 -4t14 -8.5t11 -14.5t6 -22.5v-91q7 0 18 -0.5t36.5 -9t40.5 -25.5l64 64q2 1 5 3.5
t12 7.5t18 6t21.5 -3t23.5 -16l62 -62q4 -5 8.5 -13t5.5 -28.5t-14 -35.5l-63 -67q4 -3 10 -10t15.5 -31t7.5 -52l-145 -100q1 4 0.5 12t-4 31.5t-11 44.5t-23.5 47t-39 45t-60.5 32.5t-84.5 14.5q-5 0 -13 -0.5t-32 -5t-45.5 -12t-47.5 -24.5t-44.5 -39.5t-30.5 -59
t-11 -81.5z" />
    <glyph glyph-name="pluss" unicode="&#xe69a;" 
d="M419 749h185v-273h273v-184h-273v-273h-185v273h-272v184h272v273z" />
    <glyph glyph-name="dayin" unicode="&#xe600;" 
d="M671 676q0 13 -9 22t-22 9h-259q-13 0 -22 -9t-9 -22v-258v0h321v258zM711.5 -23.5q-4.5 17.5 -9.5 33.5q-5 19 -11 39h-360v0q-8 -26 -14 -47q-5 -20 -10 -37t-8 -24q-2 -7 -2.5 -15t1 -14.5t9 -10.5t21.5 -4h36h66h79h78h63h35q23 0 33.5 12t2.5 38q-5 12 -9.5 29.5z
M958 87v0v0q-1 22 -1 43v52v51h-893v-148v0v-77q0 -13 9 -22t22 -9h58v0h20h18h33h28l44 126h429l45 -126h31h29q15 -1 29 0h68q13 0 22 9t9 22v63v1v1v14zM202.5 120q-8.5 -8 -21.5 -8q-12 0 -20.5 8t-8.5 21t8.5 21.5t20.5 8.5q13 0 21.5 -8.5t8.5 -21.5t-8.5 -21z
M958 334v0v97q0 13 -9 22t-22 9h-71h-6h-125v-96h-428v96q-27 -1 -52 -1h-54h-28h-68q-13 0 -22 -9t-9 -22v-69v-8v-67h894v40v8z" />
    <glyph glyph-name="weixiu" unicode="&#xe601;" 
d="M946 688q26 -61 13 -129.5t-62 -117.5q-54 -54 -130 -63.5t-140 27.5l-62 -68l44 -45l27 27q10 10 24.5 10t24.5 -10l215 -218q10 -10 10 -24.5t-10 -24.5l-98 -98q-10 -10 -24.5 -10t-24.5 10l-216 217q-10 11 -10 25t10 25l24 24l-42 42l-298 -325q-20 -21 -49 -21
t-49 21l-25 24q-20 21 -20 49.5t20 49.5l340 284l-226 226h-71l-82 132l66 67l136 -83v-70l228 -229l67 56q-49 66 -43.5 149.5t65.5 143.5q49 49 116.5 62t128.5 -13l-146 -144l123 -123zM180 50q-10 10 -24.5 10t-25 -10t-10.5 -24.5t10.5 -24.5t25 -10t24.5 10t10 24.5
t-10 24.5z" />
    <glyph glyph-name="sub" unicode="&#xe68e;" 
d="M64 448h896v-128h-896v128z" />
    <glyph glyph-name="shanchu" unicode="&#xe602;" 
d="M694 580q17 -2 50.5 -1.5t45.5 -1.5q34 -6 50.5 -33t12.5 -69h-54q-1 -54 -1 -298q0 -16 1 -48.5t0.5 -56.5t-2.5 -44q-3 -31 -23.5 -50.5t-50.5 -25.5q-17 -2 -38.5 -2.5t-50.5 0.5t-41 1q-29 0 -82.5 -0.5t-97 -0.5t-81.5 1q-63 1 -92 39q-3 4 -5 8.5t-4 10.5t-3 10
t-2 12l-1.5 12t-0.5 13.5v13v15v14.5v376h-52q-6 38 8.5 65t43.5 36q12 4 30.5 4.5t35.5 -0.5t38 0q-3 49 6 74.5t42 29.5q9 1 21.5 1t29 -0.5t25.5 -0.5h152h16.5h18.5t14 -1t14.5 -3t10.5 -6q6 -5 9.5 -12.5t4.5 -18.5t1.5 -19.5t0 -22.5t0.5 -21zM380 629v-50h262v52
h-261q-1 0 -1 -2zM329 469v-318q0 -6 -0.5 -19.5t-0.5 -24t0.5 -22.5t3 -20t7.5 -11q5 -4 15 -4t16 4q5 3 7.5 11t3.5 20t1 22t-0.5 23.5t-0.5 19.5v322h-51q-1 -1 -1 -3zM485 469v-308q0 -3 -1.5 -30t-0.5 -44.5t6 -24.5q5 -8 18 -11t21 3q4 4 6.5 12.5t3 20.5t0.5 23
t-1 24t-1 18v320h-51q-1 -1 0 -3zM642 469v-323q0 -5 -0.5 -20.5t-0.5 -24t1 -20t5 -18.5t10 -9q7 -3 16.5 -2t13.5 4q5 4 7 17.5t2 26t-1 31t-1 23.5v318h-51q-1 -1 -1 -3z" />
    <glyph glyph-name="more2" unicode="&#xe68d;" 
d="M259 456q-35 0 -60 -24.5t-25 -59.5t25 -59.5t60 -24.5t59.5 24.5t24.5 59.5t-24.5 59.5t-59.5 24.5zM512 456q-35 0 -59.5 -24.5t-24.5 -59.5t24.5 -59.5t59.5 -24.5t59.5 24.5t24.5 59.5t-24.5 59.5t-59.5 24.5zM765 456q-35 0 -59.5 -24.5t-24.5 -59.5t24.5 -59.5
t59.5 -24.5t60 24.5t25 59.5t-25 59.5t-60 24.5z" />
    <glyph glyph-name="phone" unicode="&#xe669;" 
d="M756 -133h-488q-21 0 -36.5 13t-15.5 32v780q0 19 15.5 32t36.5 13h488q21 0 36.5 -13t15.5 -32v-780q0 -19 -15.5 -32t-36.5 -13zM512 -88q14 0 24.5 9t10.5 21t-10.5 21t-24.5 9t-24.5 -9t-10.5 -21t10.5 -21t24.5 -9zM756 647h-488v-630h488v630z" />
    <glyph glyph-name="xingxing" unicode="&#xe603;" 
d="M785 -114l-276 133l-278 -129l44 298l-211 219l303 51l147 264l144 -266l302 -56l-214 -216z" />
    <glyph glyph-name="shouhuoruku" unicode="&#xe649;" 
d="M848 -148h-672q-46 0 -79 33t-33 79v224v0l112 503v1h112v-56h-67l-95 -448h218l112 -112h112l112 112h218l-95 448h-67v56h112v-1l112 -503v-224q0 -46 -33 -79t-79 -33zM344 524h112v224h112v-224h112l-168 -224z" />
    <glyph glyph-name="chushihuashujuku" unicode="&#xe65e;" 
d="M463 -154h-331q-30 0 -52 22t-22 52v180h259q8 -77 46.5 -143t99.5 -111zM317 173q7 77 45.5 143t99.5 111h-404v-254h259zM966 349v78h-78q45 -33 78 -78zM966 680q0 30 -22 52t-53 22h-759q-30 0 -52 -22t-22 -52v-180h908v180zM966 137q0 -29 -6 -57q-2 -9 -11 -9h-47
q-7 -25 -20 -47l34 -34q6 -6 1 -14q-32 -49 -81 -81q-8 -5 -14 1l-33 34q-23 -12 -48 -20v-47q0 -9 -9 -11q-28 -6 -57 -6t-57 6q-9 2 -9 11v47q-25 8 -48 20l-33 -34q-7 -6 -14 -1q-24 16 -44.5 36.5t-36.5 44.5q-5 8 1 14l34 33q-13 23 -20 48h-47q-10 0 -11 9
q-6 28 -6 57t6 58q1 8 11 8h47q7 25 20 48l-34 33q-6 7 -1 14q16 25 36 45v0q21 20 45 36q7 5 14 -1l33 -34q23 13 48 20v47q0 10 9 11q57 12 114 0q9 -1 9 -11v-47q25 -7 48 -20l33 34q7 6 14 1q24 -16 44.5 -36.5t36.5 -44.5q5 -7 -1 -14l-34 -33q13 -23 20 -48h47
q9 0 11 -9q6 -27 6 -57zM758 137.5q0 34.5 -24.5 58.5t-59 24t-58.5 -24t-24 -58.5t24 -59t58.5 -24.5t59 24.5t24.5 59z" />
    <glyph glyph-name="nan" unicode="&#xe661;" 
d="M693 565q-5 33 -30 55t-59 22h-106v0h-92q-34 0 -59 -22t-30 -55q-1 -5 -1 -9v-183v-120q0 -16 10.5 -27.5t25 -11.5t25 11.5t10.5 27.5v47v227h15v-682q0 -21 13.5 -36t32.5 -15t32.5 15t13.5 36v347h22v0v-347q0 -21 13.5 -36t32.5 -15t32.5 15t13.5 36v683h15v-274
q0 -17 10.5 -28.5t25 -11.5t25 11.5t10.5 28.5v302q0 4 -1 9zM502 667q30 0 51.5 21t21.5 51t-21.5 51.5t-51.5 21.5t-51 -21.5t-21 -51.5t21 -51t51 -21z" />
    <glyph glyph-name="mima" unicode="&#xe736;" 
d="M760 371v103q0 5 -0.5 14t-5 34t-13 48t-26.5 50.5t-42.5 47.5t-64.5 34t-89.5 14t-89.5 -13.5t-64.5 -34.5t-42.5 -47t-26 -51.5t-13 -47t-6 -34.5v-14v-103h-104v-484h691v484h-104zM553 104v-113h-69v113q-34 20 -34 59q0 29 20 49.5t48.5 20.5t49 -20.5t20.5 -49.5
q0 -39 -35 -59zM691 371h-345v103q0 14 2 29.5t12.5 43t27.5 48t51 36.5t79.5 16t80 -16t51.5 -36.5t27 -48t12 -43t2 -29.5v-103z" />
    <glyph glyph-name="more1" unicode="&#xe766;" 
d="M512 653q37 0 63.5 26t26.5 63.5t-26.5 63.5t-63.5 26t-63.5 -26t-26.5 -63.5t26.5 -63.5t63.5 -26zM512 474q-37 0 -63.5 -26.5t-26.5 -63.5t26.5 -63.5t63.5 -26.5t63.5 26.5t26.5 63.5t-26.5 63.5t-63.5 26.5zM512 115q-37 0 -63.5 -26t-26.5 -63.5t26.5 -63.5
t63.5 -26t63.5 26t26.5 63.5t-26.5 63.5t-63.5 26z" />
    <glyph glyph-name="chaxun1" unicode="&#xe6a2;" 
d="M992 -180q-7 -7 -15.5 -7t-13.5 7l-189 189l29 29l189 -186q11 -16 0 -32zM454.5 -71q-116.5 0 -215.5 57.5t-156 156t-57 215t57 215.5t156 156t215.5 57t215 -57t156 -156t57.5 -215.5t-57.5 -215t-156 -156t-215 -57.5zM454 742q-105 0 -193.5 -52t-139.5 -140
t-51 -192q0 -106 52 -195t140 -141t192 -52q106 0 195 52t141 141t52 194.5t-52 194t-141 139.5t-195 51z" />
    <glyph glyph-name="weixin" unicode="&#xe667;" horiz-adv-x="1025" 
d="M297 680q-74 -13 -134 -48.5t-97 -83t-54 -105.5t-10.5 -114t40.5 -109t92 -91q10 -7 9 -15t-16 -52l-17 -50l122 65l32 -8q58 -14 107 -14h17l-6 23q-17 63 2 127t64.5 112t115 78t147.5 30h29l-6 21q-23 80 -90 140t-159.5 85.5t-187.5 8.5zM270 528q24 -17 25 -45.5
t-22 -43.5q-18 -12 -37.5 -9.5t-31 15.5t-15.5 31t10 37q11 16 33 20.5t38 -5.5zM528 528q18 -13 22.5 -33t-3.5 -36.5t-26 -25t-39 -0.5q-32 12 -35 46t27 50q12 6 27.5 5.5t26.5 -6.5zM644 398q-112 -20 -182 -96.5t-66 -174.5q3 -51 27 -97.5t64 -79t92 -54t109.5 -23.5
t117.5 12l23 7l49 -27q49 -26 50 -24q1 3 -11 42q-12 36 -11.5 42.5t16.5 17.5q57 41 82 96.5t19.5 109.5t-37 106t-81 88t-118.5 52.5t-143 2.5zM638 257q10 -6 14.5 -20t-0.5 -26q-9 -26 -37.5 -27.5t-38.5 23.5q-12 28 12 47.5t50 2.5zM848 254q15 -15 13 -36t-20 -30
q-28 -14 -49.5 7t-7.5 48q9 17 29 20.5t35 -9.5z" />
    <glyph glyph-name="jiemianzhuti" unicode="&#xe604;" 
d="M764 760h-504q-85 0 -144.5 -60t-59.5 -145v-510q0 -85 59.5 -145t144.5 -60h504q85 0 144.5 60t59.5 145v510q0 85 -59.5 145t-144.5 60zM828 400l-50 -50q-5 -5 -12.5 -5t-12.5 5l-63 62v-344l-10 -9q-42 -18 -168 -18t-168 18l-10 9v344l-63 -62q-5 -5 -12.5 -5
t-12.5 5l-50 50q-5 5 -5 12.5t5 12.5l134 134h4h91q6 -31 30.5 -51.5t56.5 -20.5t56.5 20.5t30.5 51.5h91h4l134 -134q5 -5 5 -12.5t-5 -12.5z" />
    <glyph glyph-name="pingzhengchaxun" unicode="&#xe605;" 
d="M748 577q24 0 40.5 16t16.5 38t-16.5 38t-40.5 16h-482q14 -25 14 -53.5t-14 -54.5h482zM410 55q0 36 11 71h-210q-5 0 -9 3.5t-4 9t4 9t9 3.5h220l0.5 1l0.5 1q32 68 99 102h-320q-5 0 -9 4t-4 9t4 9t9 4h384q4 0 7 -3q17 3 33 3q40 0 77 -14q2 -1 5 -1v248h-557
q-13 0 -22.5 9.5t-9.5 22.5t9.5 22t22.5 9q23 0 40 16t17 38t-17 38t-40 16v0h-0.5h-0.5h-0.5h-0.5q-22 0 -38 -16t-16 -38v-670l64 -61l98 94q9 9 21.5 9t22.5 -9l101 -98l36 35l-1 1.5l-1 1.5q-35 56 -35 121zM211 411h384q5 0 9 -4t4 -9t-4 -9t-9 -4h-384q-5 0 -9 4t-4 9
t4 9t9 4zM885 345l-124 -124q-1 -1 -4 -5q-51 34 -112 34q-85 0 -145 -60.5t-60 -145.5t60 -145.5t145 -60.5t145.5 60.5t60.5 145.5q0 61 -33 112l4 4l124 124q13 13 13 31t-12.5 30.5t-30.5 12.5t-31 -13zM786 44q0 -58 -41.5 -99.5t-99.5 -41.5t-99 41.5t-41 99.5
t41 99.5t99 41.5t99.5 -41.5t41.5 -99.5v0z" />
    <glyph glyph-name="icon" unicode="&#xe606;" 
d="M570 126q15 31 40 55h-451v56h585h1h0.5h1h0.5h30v-3q27 -4 51 -16v462h-720v-720h462q-19 39 -19 82q0 14 2 28h-394v56h411v0zM468 569h309v-55h-309v55v0zM159 459h618v-56h-618v56v0zM159 348h618v-56h-618v56v0zM780 -1zM870 -31l-21 -22l-43 43l21 22zM933 -81
q7 -7 8.5 -15.5t-3.5 -13.5l-9 -9q-5 -5 -13.5 -3.5t-15.5 8.5l-61 61q-7 7 -8.5 15.5t4.5 13.5l8 9q5 5 13.5 3.5t15.5 -8.5zM736.5 210q-53.5 0 -91.5 -37.5t-38 -91t38 -91.5t91.5 -38t91.5 38t38 91.5t-38 91t-91.5 37.5zM736.5 -24q-43.5 0 -74.5 30.5t-31 74.5t31 75
t74.5 31t74.5 -31t31 -75t-31 -74.5t-74.5 -30.5zM763 17q-39 0 -66 27.5t-27 66.5v4q-11 -18 -11 -38q0 -30 21 -51.5t51 -21.5q23 0 42 14q-5 -1 -10 -1z" />
    <glyph glyph-name="chaxun2" unicode="&#xe727;" 
d="M944 -96l-298 298q80 92 80 215q0 137 -97 233.5t-234 96.5t-233.5 -96.5t-96.5 -233.5t96.5 -234t233.5 -97q112 0 200 67l300 -299zM95 417q0 124 88 212t212 88t212 -88t88 -212t-88 -212t-212 -88t-212 88t-88 212z" />
    <glyph glyph-name="17feiqi" unicode="&#xe64a;" 
d="M951 593h-102l-69 -707q0 -41 -28.5 -69.5t-68.5 -28.5h-342q-40 0 -68.5 28.5t-28.5 69.5l-69 707h-102q-10 0 -17 7t-7 17t7 17t17 7h98h48h74v73q0 41 28.5 69.5t68.5 28.5h244q40 0 69 -28.5t29 -69.5v-73h73h48h98q10 0 17 -7t7 -17t-7 -17t-17 -7zM683 714
q0 21 -14.5 35t-34.5 14h-244q-20 0 -34.5 -14t-14.5 -35v-73h342v73zM224 593l69 -707q0 -21 14 -35t34 -14h342q20 0 34 14t14 35l69 707h-576zM634 -66q-10 0 -17 7.5t-7 17.5l24 512q0 10 7 17t17 7t17.5 -7t7.5 -17l-25 -512q0 -10 -7 -17.5t-17 -7.5zM512 -66
q-10 0 -17 7.5t-7 17.5v512q0 10 7 17t17 7t17 -7t7 -17v-512q0 -10 -7 -17.5t-17 -7.5zM390 -66q-10 0 -17 7.5t-7 17.5l-25 512q0 10 7.5 17t17.5 7t17 -7t7 -17l24 -512q0 -10 -7 -17.5t-17 -7.5z" />
    <glyph glyph-name="10" unicode="&#xe66b;" 
d="M960 290v-224h-51q-12 32 -28 52q-13 19 -32 32t-45 22.5t-42 13.5t-47 10q-46 10 -64 17q-9 3 -17 7q29 32 47 74q22 53 22 110q0 114 -29 173q-22 43 -59 66q23 83 112 83q31 0 53 -10t35 -26t21 -41.5t10.5 -50.5t2.5 -59q0 -40 -16.5 -78.5t-43.5 -61.5q-5 -5 -5 -13
q-1 -28 5 -35q13 -18 40.5 -28t69.5 -18.5t61 -14.5zM140 117q14 19 33 33t45 23.5t43 13.5t49 11q45 8 65 15q10 4 16 7q-28 31 -47 74q-22 53 -23 108q-1 68 9 116q13 66 51 104q12 12 28 22q-24 83 -111 83q-31 0 -54 -10.5t-36 -26.5t-20.5 -41.5t-10 -51t-1.5 -59.5
q0 -40 16.5 -78t42.5 -61q6 -5 6 -13q0 -28 -5 -35q-13 -17 -40.5 -27t-70 -18t-61.5 -14v-226h51q10 29 25 51zM883 -107q0 -8 -5.5 -14t-13.5 -6h-703q-8 0 -13.5 6t-5.5 14q8 139 44 190q17 24 55 38t75.5 19.5t75 18t52.5 33.5q6 8 6 40q0 8 -6 14q-30 26 -48 68.5
t-18 86.5q-1 39 1.5 67.5t11 57t23 47t39.5 29.5t60 11q34 0 59 -11t39 -29t22.5 -46.5t11 -57t2.5 -66.5q0 -45 -18 -87.5t-47 -69.5q-6 -6 -6 -14q-1 -31 5 -40q15 -21 52 -34t74 -18t75 -19.5t55 -37.5q38 -50 46 -190v0z" />
    <glyph glyph-name="dayin1" unicode="&#xe607;" 
d="M696 -71h-371h-4.5t-9 2t-11 5.5t-8.5 11t-4 18.5v185h37v-185h371v185h37v-185q0 -17 -9 -26t-19 -10l-9 -1v0zM919 40h-112q-16 0 -25.5 9.5t-10.5 18.5l-1 9v112h-520v-112q0 -16 -9 -25.5t-18 -10.5l-10 -1h-111h-4.5t-8.5 2t-11 5.5t-9 11.5t-4 18v409q0 16 9 25.5
t19 10.5l9 1h186v111v4.5t2 9t5.5 11t11 8.5t18.5 4h371q10 0 18 -4t11.5 -8.5t5.5 -11t2 -9v-4.5v-111h186q16 0 25.5 -9.5t10.5 -18.5l1 -9v-409q0 -16 -9.5 -25.5t-18.5 -10.5l-9 -1v0zM807 77h112v409h-817v-409h111v149h594v-149v0zM325 523h371v111h-371v-111v0z
M176 449q-15 0 -26 -11t-11 -26.5t11 -26.5t26 -11t26 11t11 26.5t-11 26.5t-26 11zM371 114q-9 0 -9 -9t9 -9t9 9t-9 9zM651 96h-232q-8 0 -8 9t8 9h232q8 0 8 -9t-8 -9v0v0zM371 40q-9 0 -9 -9.5t9 -9.5t9 9.5t-9 9.5zM651 21h-232q-8 0 -8 9.5t8 9.5h232q8 0 8 -9.5
t-8 -9.5v0v0zM651 21z" />
    <glyph glyph-name="bangzhu1" unicode="&#xe783;" 
d="M512 748q-122 0 -225 -60t-163 -163t-60 -225t60 -225t163 -163t225 -60t225 60t163 163t60 225t-60 225t-163 163t-225 60zM512 -84q-159 0 -271.5 112.5t-112.5 271.5t112.5 271.5t271.5 112.5t271.5 -112.5t112.5 -271.5t-112.5 -271.5t-271.5 -112.5zM511 529
q-54 0 -92 -38.5t-38 -92.5h65q0 27 19 46t46 19t46.5 -19t19.5 -46q0 -31 -20 -46l-39 -42q-39 -34 -39 -92v-16h65q0 35 9 54t30 37l30 30q29 35 29 75q0 54 -38.5 92.5t-92.5 38.5zM512 137v0q-14 0 -23.5 -10t-9.5 -23.5t9.5 -23t23.5 -9.5v0q14 0 23.5 9.5t9.5 23
t-9.5 23.5t-23.5 10z" />
    <glyph glyph-name="guanwangicon31315" unicode="&#xe608;" 
d="M634 141q-3 0 -7 1.5t-10.5 7.5t-7.5 15v48q4 3 9.5 8.5t20 23.5t27 37t24.5 47t16 55q21 0 35.5 29t12 64.5t-22.5 53.5q0 9 -1.5 26t1 37.5t-1.5 43.5t-9 46t-21 43.5t-38.5 36.5t-61 25.5t-87.5 9.5t-87.5 -10.5t-61 -27t-38.5 -38.5t-21 -45.5t-9 -47t-2 -43.5t1 -35
t-1 -21q-21 -18 -23 -53.5t12 -64.5t35 -29q4 -27 16 -54.5t25.5 -47.5t26.5 -36t21 -24l9 -8v-48q0 -8 -6 -14t-12 -9l-7 -2q-23 -4 -68 -23.5t-100.5 -51.5t-105 -70t-83 -84t-33.5 -87v-49h1024v49q0 41 -33.5 87t-83.5 84t-105 70.5t-100.5 51.5t-67.5 23zM463 92v24h98
v-48l-25 -25h-48l-25 25v24zM439 -152q0 33 5.5 60.5t11.5 42t14.5 26t12 14.5t5.5 4v0h48q2 -1 5.5 -3.5t12 -13.5t14.5 -26t11.5 -42.5t5.5 -61.5h-146z" />
    <glyph glyph-name="shangchuan" unicode="&#xe609;" 
d="M470 -4v148h-94l145 176l144 -175l-95 -1v-148h223q5 0 14.5 1t34 9t45.5 22t42 45t30 73q-1 28 -1 38.5t-2 23t-2.5 13.5t-6 14.5t-8.5 21.5q-18 25 -25 33.5t-26.5 22.5t-49.5 28q24 108 -46 193q-38 46 -96 62t-103 7q-45 -8 -88 -37.5t-69 -88.5q-24 25 -54 38.5
t-79 12.5q-30 -1 -67.5 -26t-53.5 -73q-16 -39 -3 -91q-39 -12 -75 -50q-21 -23 -34.5 -66t-2.5 -87q28 -116 150 -139h91h109h53z" />
    <glyph glyph-name="msnui-asset-conf" unicode="&#xe60a;" 
d="M929 177h-31q-5 16 -13 31l23 22q7 8 7 18.5t-7 18.5l-19 18q-7 8 -18 8t-18 -8l-23 -23q-13 8 -29 12v31q0 11 -7.5 18.5t-18.5 7.5h-26q-10 0 -17.5 -7.5t-7.5 -18.5v-31q-16 -4 -30 -12l-24 23q-7 8 -18 8t-18 -8l-19 -18q-7 -8 -7 -18.5t7 -18.5l24 -23
q-8 -14 -13 -30h-31q-10 0 -17.5 -7.5t-7.5 -18.5v-26q0 -10 7.5 -17.5t17.5 -7.5h31q5 -16 12 -29l-23 -23q-7 -8 -7 -18.5t7 -18.5l19 -18q7 -8 18 -8t18 8l23 22q14 -8 31 -13v-31q0 -10 7.5 -17.5t17.5 -7.5h26q11 0 18.5 7.5t7.5 17.5v31q16 5 30 13l22 -22q7 -8 18 -8
t18 8l19 18q7 8 7 18.5t-7 18.5l-22 22q8 14 12 30h31q11 0 18.5 7.5t7.5 17.5v26q0 11 -7.5 18.5t-18.5 7.5v0zM762 61q-32 0 -54.5 22.5t-22.5 54.5t22.5 54.5t54.5 22.5t54.5 -22.5t22.5 -54.5t-22.5 -54.5t-54.5 -22.5zM762 177q-16 0 -27 -11.5t-11 -27.5t11 -27
t27 -11t27.5 11t11.5 27t-11.5 27.5t-27.5 11.5zM209.5 215q11.5 0 19.5 8t8 19.5t-8 20t-19.5 8.5t-19.5 -8.5t-8 -19.5t8 -19.5t19.5 -8.5zM465 -52q0 50 11 97h-239q-23 0 -41 18.5t-18 41.5v55q-23 0 -37 16t-14 39v56q0 23 14 39t37 16v110q-23 0 -37 16t-14 40v55
q0 23 14 39t37 16v55q0 23 18 40.5t41 17.5h553q23 0 41 -17.5t18 -40.5v-258q36 6 73 6q17 0 35 -1v253q0 69 -49 117.5t-118 48.5h-553q-68 0 -116.5 -48.5t-48.5 -117.5v-552q0 -69 48.5 -117.5t116.5 -48.5h228v9v0zM293 99h198q23 66 64 122q-20 -6 -41 -6
q-69 0 -117.5 48.5t-48.5 117.5t48.5 117.5t117 48.5t117 -48.5t48.5 -117.5q0 -26 -8 -51q59 39 126 58v214q0 23 -20 42t-43 19h-441q-23 0 -39.5 -19t-16.5 -42q23 0 35.5 -15.5t12.5 -39.5v-55q0 -23 -16 -39.5t-39 -16.5v-110q23 0 39 -16.5t16 -38.5v-56
q0 -23 -12.5 -39t-35.5 -16q0 -23 16.5 -42t39.5 -19zM513.5 492q-45.5 0 -78 -32.5t-32.5 -78.5t32.5 -78t78 -32t78 32t32.5 78t-32.5 78.5t-78 32.5zM209.5 492q11.5 0 19.5 8t8 19.5t-8 19.5t-19.5 8t-19.5 -8t-8 -19.5t8 -19.5t19.5 -8z" />
    <glyph glyph-name="leixing" unicode="&#xe662;" horiz-adv-x="1025" 
d="M148 -212h-108l-39 1l-1 39v174q3 130 71 198q70 70 170 70t170.5 -70.5t70.5 -170.5t-70 -170q-68 -68 -198 -71h-66zM56 -156q120 -1 156 0q109 2 160 54q55 54 55 131t-54.5 131.5t-131.5 54.5t-131 -54q-52 -52 -54 -161q-1 -36 0 -156zM241 330q-100 0 -170 70
q-68 68 -71 198v174l1 39l39 1q129 1 174 0q130 -3 198 -71q70 -70 70 -170t-70.5 -170.5t-170.5 -70.5zM56 756q-1 -120 0 -156q2 -109 54 -161q54 -54 131 -54t131.5 54.5t54.5 131.5t-54 131q-52 52 -161 54q-36 1 -156 0zM876 -212h-66q-130 3 -198 71q-70 70 -70 170
t70.5 170.5t170.5 70.5t170 -70q68 -68 71 -198q1 -43 0 -174l-1 -39l-39 -1h-108zM783 215q-77 0 -131.5 -54.5t-54.5 -131.5t55 -131q51 -52 160 -54q37 -1 156 0q1 120 0 156q-2 109 -54 160q-54 55 -131 55zM783 330q-100 0 -170.5 70.5t-70.5 170.5t70 170
q68 68 198 71h174l39 -1l1 -39q1 -131 0 -174q-3 -130 -71 -198q-70 -70 -170 -70zM876 757q-44 0 -64 -1q-109 -2 -160 -54q-55 -54 -55 -131t54.5 -131.5t131.5 -54.5t131 54q52 52 54 161q1 36 0 156q-50 1 -92 1z" />
    <glyph glyph-name="tuichu" unicode="&#xe60b;" 
d="M512 752q-94 0 -180 -36.5t-148.5 -99t-99 -148.5t-36.5 -180t36.5 -180.5t99 -149.5t148.5 -100.5t180 -37.5t180.5 37t149.5 99.5t100.5 149.5t37.5 182.5t-37 181.5t-99.5 148t-149 98t-182.5 36v0zM483 537q0 13 9.5 22.5t23 9.5t23.5 -9.5t10 -22.5v-187
q0 -14 -10 -23.5t-23.5 -9.5t-23 9.5t-9.5 23.5v187zM512 7q-104 0 -176.5 72t-72.5 176q0 78 44 140t114 90v-69q-43 -26 -69 -68t-26 -93q0 -77 54.5 -131.5t131.5 -54.5t131.5 54.5t54.5 131.5q0 52 -25 94t-70 67v69q70 -28 114 -90t44 -140q0 -102 -72.5 -175
t-176.5 -73v0zM512 7z" />
    <glyph glyph-name="queren" unicode="&#xe60c;" 
d="M512 -212q-139 0 -257 68.5t-186.5 186.5t-68.5 257t68.5 257t186.5 186.5t257 68.5t257 -68.5t186.5 -186.5t68.5 -257t-68.5 -257t-186.5 -186.5t-257 -68.5zM512 755q-93 0 -177 -36t-145 -97t-97 -145t-36 -177t36 -177t97 -145t145 -97t177 -36t177 36t145 97
t97 145t36 177t-36 177t-97 145t-145 97t-177 36zM274 300l40 40l141 -141l282 282l40 -40l-322 -322z" />
    <glyph glyph-name="admin" unicode="&#xe60d;" 
d="M582 -194l17 100l-72 70q-40 39 -24 88q7 23 26 38t45 18l87 13q-6 4 -10 8q-16 14 -24 30q-7 16 -8 32t2 31q2 11 6 21q4 8 10 14q8 7 15 12q8 6 17 14q8 6 15 19q7 14 11 26q6 16 9 32q11 3 20 11q8 7 14 20q7 14 10 34q2 16 0 27q-3 10 -7 19q-4 8 -11 12q1 42 -5 81
q-5 34 -18 74q-13 39 -38 72q-12 14 -30 28q-16 12 -41 25q-23 10 -51 18q-27 7 -56 7q-22 0 -49 -4q-26 -5 -49 -15q-24 -10 -48 -28q-24 -17 -44 -45q-20 -29 -31 -66q-10 -37 -14 -69q-5 -37 -4 -78q-9 -11 -13 -21t-5 -24q-2 -14 3 -31q5 -18 12 -27q8 -9 14 -14t14 -7
q6 -18 10 -31q6 -15 11 -26q7 -13 15 -20q15 -13 31 -28q13 -13 15 -37q1 -18 1 -29q0 -13 -4 -25q-5 -12 -17 -25t-33 -25q-26 -18 -61 -27q-21 -5 -148 -49q-33 -11 -57 -30q-25 -19 -31 -57q-5 -35 -6 -45t2 -33q5 -42 16 -50q10 -7 53 -17q26 -6 76 -14t152.5 -17.5
t198.5 -9.5q42 0 80 2q-1 14 1 28v0zM1004 52l-106 15q-12 2 -25 11t-18 20l-48 97q-5 11 -13 11t-13 -11l-48 -97q-5 -11 -18 -20t-25 -11l-106 -15q-13 -2 -15 -9.5t6 -16.5l77 -75q9 -8 14 -23t3 -27l-18 -106q-3 -19 10 -19q5 0 11 3l95 50q12 6 27 6t26 -6l95 -50
q6 -3 11 -3q14 0 11 19l-18 106q-2 12 2.5 27t13.5 23l77 75q9 9 7 16.5t-15 9.5z" />
    <glyph glyph-name="reset" unicode="&#xe65f;" 
d="M648 782l-222 -162q-10 -7 -10 -19q0 -13 10 -20l222 -161q12 -9 25.5 -2t13.5 21v90q50 -30 88 -75q92 -109 80 -251q-6 -68 -37.5 -128.5t-83.5 -104.5q-109 -92 -251 -80t-234 121t-79 251q11 139 117 230q17 16 19 39t-13.5 41t-38.5 19.5t-41 -14.5
q-68 -58 -108 -137t-48 -169q-8 -91 19.5 -177t86.5 -156t139 -111t171 -49t177 19.5t156 86t111.5 139t49.5 171.5q1 17 1 39q0 166 -107 294q-72 85 -174 127v108q0 15 -14 22q-13 6 -25 -2v0zM387 222.5q0 -51.5 36.5 -88t88.5 -36.5t88.5 36.5t36.5 88t-36.5 88
t-88.5 36.5t-88.5 -36.5t-36.5 -88z" />
    <glyph glyph-name="iconfuben" unicode="&#xe60e;" 
d="M879 300q0 9 -1 27q55 18 82 32l-6 37q-31 5 -89 3q-7 26 -19 51q46 35 67 58l-19 32q-30 -6 -84 -28q-17 23 -35 42q31 49 42 77l-29 24q-26 -16 -69 -54q-21 14 -48 27q12 56 13 87l-35 13q-19 -24 -47 -75q-29 7 -54 9q-8 57 -17 86h-38q-9 -29 -17 -86q-25 -2 -54 -9
q-28 51 -47 75l-35 -13q1 -31 13 -87q-27 -13 -48 -27q-43 38 -69 54l-29 -24q11 -28 42 -77q-18 -19 -35 -42q-54 22 -84 28l-19 -32q21 -23 67 -58q-12 -25 -19 -51q-58 2 -89 -3l-6 -37q27 -14 82 -32q-1 -18 -1 -27t1 -27q-55 -18 -82 -32l6 -37q31 -5 89 -3
q7 -26 19 -51q-46 -35 -67 -58l19 -32q30 6 84 28q17 -23 35 -42q-31 -49 -42 -77l29 -24q26 16 69 54q21 -14 48 -27q-12 -56 -13 -87l35 -13q19 24 47 75q29 -7 54 -9q8 -57 17 -86h38q9 29 17 86q25 2 54 9q28 -51 47 -75l35 13q-1 31 -13 87q27 13 48 27q43 -38 69 -54
l29 24q-11 28 -42 77q18 19 35 42q54 -22 84 -28l19 32q-21 23 -67 58q12 25 19 51q58 -2 89 3l6 37q-27 14 -82 32q1 18 1 27zM512 608q120 0 208 -81t99 -199h-57q-10 95 -81.5 159.5t-168.5 64.5q-46 0 -90 -17l-29 49q57 24 119 24zM316 300q0 49 22.5 91t61.5 70
l28 -49q-56 -43 -56 -112t56 -112l-28 -49q-39 28 -61.5 70t-22.5 91zM479 164q18 -4 33 -4q50 0 88.5 32t48.5 80h57q-10 -72 -65.5 -120t-128.5 -48q-31 0 -62 10zM456 300q0 23 16.5 39.5t39.5 16.5t39.5 -16.5t16.5 -39.5t-16.5 -39.5t-39.5 -16.5t-39.5 16.5
t-16.5 39.5zM649 328q-10 48 -48.5 80t-88.5 32q-15 0 -33 -4l-29 50q31 10 62 10q73 0 128.5 -48t65.5 -120h-57zM204 300q0 80 37.5 148t102.5 110l28 -49q-52 -34 -82 -89.5t-30 -119.5t30 -119.5t82 -89.5l-28 -49q-65 42 -102.5 110t-37.5 148zM512 -8q-62 0 -119 24
l29 49q44 -17 90 -17q97 0 168.5 64.5t81.5 159.5h57q-11 -118 -99 -199t-208 -81z" />
    <glyph glyph-name="zititubiao20" unicode="&#xe63d;" 
d="M933 402l-82 7q-9 28 -22 54l52 62q8 9 7.5 20.5t-8.5 19.5l-103 102q-8 8 -19.5 8.5t-19.5 -6.5l-63 -53q-26 14 -54 23l-7 81q-1 11 -9.5 19t-19.5 8h-146q-11 0 -19.5 -8t-9.5 -19l-7 -81q-28 -9 -54 -23l-63 53q-8 7 -19.5 6.5t-19.5 -8.5l-103 -102
q-8 -8 -8.5 -19.5t7.5 -20.5l52 -62q-13 -26 -22 -54l-82 -7q-11 -1 -18.5 -9.5t-7.5 -19.5v-146q0 -11 7.5 -19.5t18.5 -9.5l82 -7q9 -27 22 -54l-52 -62q-8 -9 -7.5 -20.5t8.5 -19.5l103 -102q8 -8 19.5 -8.5t19.5 6.5l63 53q26 -14 54 -23l7 -81q1 -12 9.5 -19.5
t19.5 -7.5h146q11 0 19.5 7.5t9.5 19.5l7 81q28 9 54 23l63 -53q8 -7 19.5 -6.5t19.5 8.5l103 102q8 8 8.5 19.5t-7.5 20.5l-52 62q13 26 22 54l82 7q11 1 18.5 9.5t7.5 19.5v146q0 11 -7.5 19.5t-18.5 9.5zM512 89q-87 0 -149 62t-62 149t62 149t149 62t149 -62t62 -149
t-62 -149t-149 -62zM512 453q-63 0 -108 -45t-45 -108t45 -108t108 -45t108 45t45 108t-45 108t-108 45z" />
    <glyph glyph-name="xiao" unicode="&#xe70f;" 
d="M360 173q-16 40 -63 135v-442h-80v422q-48 -170 -104 -257q-17 49 -43 85q40 56 76.5 150.5t55.5 189.5h-101v81h116v191h80v-192h100v-80h-100v-34q37 -50 114 -184zM831 312q-38 -129 -110 -227q97 -95 232 -135q-34 -31 -60 -78q-132 47 -229 147q-95 -95 -231 -154
q-30 48 -56 67q142 59 230 151q-71 98 -115 218q-32 -31 -47 -44q-23 27 -60 53q43 35 85 87.5t69 103.5l78 -36q-48 -80 -113 -149l61 15q35 -101 97 -181q59 83 85 184zM935 514h-514v81h224q-21 50 -67 111l76 30q50 -56 76 -115l-61 -26h266v-81zM773 507
q48 -45 94.5 -98t69.5 -92l-65 -56q-21 40 -66.5 95.5t-92.5 102.5z" />
    <glyph glyph-name="subs" unicode="&#xe635;" 
d="M128 448h767v-127h-767v127z" />
    <glyph glyph-name="svg33" unicode="&#xe60f;" 
d="M662 308q-22 22 -44 43l-34 31q-14 13 -17 16q-25 23 -56.5 21.5t-53.5 -21.5q-3 -4 -18 -17q-16 -15 -34 -32q-12 -11 -46 -42q-25 -22 -51 -46q-54 -49 -134 -123v-179q0 -21 15.5 -33t41.5 -12h165h227h170q26 1 40.5 16.5t14.5 35.5v171q-82 76 -135 125
q-26 23 -51 46zM615 75q10 -1 15.5 -7.5t5.5 -15.5t-5.5 -15.5t-15.5 -6.5h-68v-38q-2 -31 -34 -31q-16 0 -24.5 7.5t-9.5 23.5v37h-69q-10 1 -15 8.5t-6 16.5q1 9 6 14.5t15 6.5h69v22l-69 1q-10 1 -15 7t-6 15q1 9 6 15t15 6h51l-48 85q-3 4 -6.5 11t-2.5 15q1 10 6.5 16
t20.5 8q8 -1 15 -6t11 -11l55 -100l60 100q4 7 11 11.5t16 5.5q5 0 9.5 -1.5t8 -4t5.5 -7t4 -11.5q0 -11 -8 -20l-55 -91h53q9 0 14.5 -6t5.5 -15t-5.5 -15.5t-15.5 -7.5h-68v-22h68v0zM944 267l-23 23q-17 17 -42 41q-26 24 -55.5 53t-61.5 60q-34 32 -62 60q-21 20 -56 53
l-41 41q-17 16 -23 21q-28 27 -67.5 26.5t-73.5 -33.5q-4 -5 -32 -30q-26 -24 -66 -62q-39 -37 -83 -77q-44 -42 -83 -78q-38 -36 -66.5 -62t-33.5 -31q-14 -14 -15 -37t17 -39q16 -14 38.5 -13.5t36.5 11.5q4 4 26 24q23 21 53 49q31 29 67 62.5t68 63.5q34 32 57 54
q25 22 34 31q27 24 55 25t56 -25q7 -6 30 -28q21 -20 56 -53q38 -36 69 -66q38 -36 68 -64q27 -26 55 -52q23 -22 27 -25q14 -12 36.5 -13t39.5 14q15 15 14 36.5t-19 39.5z" />
    <glyph glyph-name="xiangxixinxi" unicode="&#xe655;" 
d="M519.5 600q15.5 0 26.5 9.5t11 23.5v92q0 14 -11 23.5t-26.5 9.5t-26.5 -9.5t-11 -23.5v-92q0 -14 11 -23.5t26.5 -9.5zM750 600q16 0 27 9.5t11 23.5v92q0 14 -11 23.5t-27 9.5t-27 -9.5t-11 -23.5v-92q0 -14 11 -23.5t27 -9.5zM289.5 600q15.5 0 26.5 9.5t11 23.5v92
q0 14 -11 23.5t-26.5 9.5t-26.5 -9.5t-11 -23.5v-92q0 -14 11 -23.5t26.5 -9.5zM814 721v-48q11 -16 11 -34q0 -28 -22 -47t-53 -19t-53 19t-22 47q0 18 11 34v48h-102v-48q11 -16 11 -34q0 -28 -22 -47t-53 -19t-53.5 19t-22.5 47q0 18 12 34v48h-102v-48q11 -16 11 -34
q0 -28 -22 -47t-53.5 -19t-53.5 19t-22 47q0 18 12 34v48h-70v-655l17 -15l223 -196h487v866h-69zM822 -91h-346q-25 0 -39.5 19.5t-16.5 47t-0.5 55.5t5.5 47l4 20q-4 -1 -11.5 -2.5t-29.5 -4.5t-42 -4.5t-44.5 0t-42 6t-30 16t-12.5 28.5v385h605v-613zM752 409
q0 -16 -12 -28t-29 -12h-385q-17 0 -28.5 12t-11.5 28v0q0 17 11.5 28.5t28.5 11.5h385q17 0 29 -11.5t12 -28.5v0zM752 250q0 -16 -11.5 -28t-28.5 -12h-385q-17 0 -29 12t-12 28v0q0 17 12 28.5t29 11.5h385q17 0 28.5 -11.5t11.5 -28.5v0z" />
    <glyph glyph-name="qq" unicode="&#xe668;" 
d="M890 253q-19 47 -63 95q12 19 12 38q0 41 -46 76q-12 107 -92.5 180.5t-190 73.5t-190.5 -73.5t-92 -180.5q-46 -35 -46 -76q0 -19 12 -38q-44 -48 -63 -95q-40 -98 -17 -158q10 -25 25 -24.5t29 24.5q6 11 19 31q21 -60 67 -108q-31 -9 -44 -19q-25 -21 -26.5 -43.5
t20.5 -41.5q31 -26 119 -29.5t157 29.5q17 -2 30 -2q16 0 33 2q69 -33 157.5 -29.5t119.5 29.5q21 19 19.5 41.5t-26.5 43.5q-13 10 -45 19q45 48 65 108q14 -20 20 -31q14 -24 29 -24.5t25 24.5q23 60 -17 158v0z" />
    <glyph glyph-name="shezhi1" unicode="&#xe63e;" 
d="M521 -212h-14q-47 3 -90 25q-19 8 -17 28l4 70q-46 13 -86 35l-64 -56q-15 -14 -33 -5q-43 22 -74 57t-47 81q-7 19 8 32l53 46q-24 41 -37 86l-84 5q-20 2 -27 21q-15 45 -12 92q2 47 23 90q9 18 29 17l70 -4q13 46 35 86l-56 64q-13 15 -4 33q21 43 56 74t81 47
q19 7 32 -8l46 -53q42 24 86 37l5 84q2 20 21 27q46 16 92 12q47 -2 90 -24q18 -8 17 -28l-4 -70q46 -13 86 -35l64 56q15 13 33 4q43 -21 74 -56q32 -36 47 -81q7 -19 -8 -32l-53 -46q24 -42 37 -86l84 -5q20 -2 27 -21q15 -45 12 -92t-24 -90q-8 -18 -28 -17l-70 4
q-13 -46 -35 -86l56 -64q13 -15 4 -33q-21 -43 -56 -74q-36 -32 -81 -47q-19 -7 -32 8l-46 53q-41 -24 -86 -37l-5 -84q-2 -20 -21 -27q-38 -13 -78 -13zM461 -141q24 -9 50 -11q24 -1 50 5l5 85q2 22 23 27q59 14 111 48q9 6 20.5 4.5t18.5 -10.5l49 -55q23 11 42 28t33 38
l-56 64q-15 17 -3 36q32 51 44 112q2 10 11 17t20 7l74 -5q9 24 11 50q1 25 -5 50l-85 5q-22 2 -27 23q-14 59 -48 111q-6 9 -4.5 20.5t10.5 18.5l55 49q-11 23 -28 42t-38 33l-64 -56q-17 -15 -36 -3q-51 32 -112 44q-11 2 -17.5 11t-6.5 20l5 74q-24 9 -49.5 10.5
t-50.5 -4.5l-5 -85q-1 -10 -7.5 -17.5t-16.5 -9.5q-58 -14 -110 -48q-9 -6 -20.5 -4.5t-18.5 10.5l-49 55q-23 -11 -42 -28t-33 -38l56 -64q15 -17 3 -36q-31 -51 -44 -112q-2 -11 -11 -17.5t-20 -6.5l-74 5q-9 -24 -11 -50q-1 -25 5 -50l85 -5q10 -1 17.5 -7.5t9.5 -15.5
q14 -60 48 -111q6 -9 4.5 -20.5t-10.5 -18.5l-55 -49q11 -23 28 -42q17 -20 38 -33l64 56q17 15 36 3q51 -32 112 -44q11 -2 17.5 -11t6.5 -20zM512 110q-78 0 -134 56t-56 134t56 134t134 56t134 -56t56 -134t-56 -134t-134 -56zM512 417q-49 0 -83 -34t-34 -83t34 -83
t83 -34t83 34t34 83t-34 83t-83 34z" />
    <glyph glyph-name="cuowu" unicode="&#xe747;" 
d="M512 812q-139 0 -257 -68.5t-186.5 -186.5t-68.5 -257t68.5 -257t186.5 -186.5t257 -68.5t257 68.5t186.5 186.5t68.5 257t-68.5 257t-186.5 186.5t-257 68.5zM512 -84q-159 0 -271.5 112.5t-112.5 271.5t112.5 271.5t271.5 112.5t271.5 -112.5t112.5 -271.5
t-112.5 -271.5t-271.5 -112.5zM704 428.5q0 26.5 -19 45t-45 18.5t-45 -19l-83 -82l-83 82q-19 19 -45.5 19t-45 -18.5t-18.5 -45t19 -45.5l82 -83l-82 -83q-19 -18 -19 -44.5t18.5 -45.5t45 -19t45.5 19l83 83l83 -83q19 -19 45 -19t45 19t19 45.5t-19 44.5l-83 83l83 83
q19 19 19 45.5z" />
    <glyph glyph-name="home" unicode="&#xe610;" horiz-adv-x="1515" 
d="M757 519l-328 -271q0 -1 -0.5 -2t-0.5 -2v-274q0 -15 11 -26t26 -11h219v220h147v-220h219q15 0 26 11t11 26v274q0 3 -1 4zM1212 309l-125 104v234q0 8 -5.5 13t-13.5 5h-109q-8 0 -13.5 -5t-5.5 -13v-112l-139 117q-18 15 -43.5 15t-43.5 -15l-411 -343q-6 -4 -6.5 -12
t4.5 -13l35 -43q5 -5 12 -6q7 0 14 4l395 330l396 -330q4 -4 12 -4h2q7 1 12 6l35 43q5 5 4 13t-6 12z" />
    <glyph glyph-name="chakan" unicode="&#xe611;" 
d="M512.5 -148q-91.5 0 -174.5 35.5t-143 95.5t-95.5 143t-35.5 174.5t35.5 174.5t95.5 143t143 95.5t174.5 35.5t174.5 -35.5t143 -95.5t95.5 -143t35.5 -174.5t-35.5 -174.5t-95.5 -143t-143 -95.5t-174.5 -35.5zM569 637v-168h-112v168q-125 -11 -198.5 -84t-82.5 -197
h169v-112h-169q13 -121 87 -195.5t194 -84.5v168h112v-168q119 11 193 85.5t87 194.5h-168v112h168q-9 123 -83 196t-197 85z" />
    <glyph glyph-name="queren1" unicode="&#xe612;" 
d="M812 193h52v-107h-52v107zM812 336h52v-107h-52v107zM864 428q-24 -29 -47 -59h47v59zM862 50h-52q0 -34 -23.5 -57.5t-57.5 -23.5v-53q55 0 94 39t39 95zM581 -33h108v-52h-108v52zM689 604v45h-108v-53h99q7 7 9 8zM441 -33h107v-52h-107v52zM441 649h107v-53h-107v53z
M298 -33h107v-52h-107v52zM298 649h107v-53h-107v53zM178 50h-52q0 -56 39 -95t94 -39v53q-33 0 -57 23.5t-24 57.5zM259 596v53q-55 0 -94 -39t-39 -94h52q0 33 24 56.5t57 23.5zM126 476h52v-107h-52v107zM126 336h52v-107h-52v107zM126 193h52v-107h-52v107zM495 313
l-196 153l-87 -70l340 -344q49 127 180.5 315.5t288.5 332.5l-21 48q-87 -53 -169.5 -116.5t-147 -124t-108.5 -106.5t-80 -88z" />
    <glyph glyph-name="fanhui" unicode="&#xe653;" 
d="M801 395q42 -25 82.5 -84t59.5 -131q22 -84 22 -190q-34 55 -48 75q-11 15 -28 34t-55.5 49.5t-80.5 49.5q-40 19 -100.5 27.5t-101.5 7.5h-41v-175l-419 297l419 297v-176q101 -8 154 -19q39 -8 73.5 -23.5t48.5 -27.5z" />
    <glyph glyph-name="kuajingzhifuiconxiangxixinxi" unicode="&#xe693;" 
d="M529 649v158h495v-158h-495v0v0zM529 409v158h495v-158h-495v0v0zM529 33v157h495v-157h-495v0v0zM529 -207v158h495v-158h-495v0v0zM395 408h-395v395h395v-395v0zM395 -206h-395v395h395v-395v0zM395 -206z" />
    <glyph glyph-name="daochuexcel1" unicode="&#xe683;" 
d="M584 669v143l-552 -150v-724l552 -150v143h406v738h-406v0zM584 131h102v-89h-102v89v0zM584 276h102v-90h-102v90v0zM584 421h102v-90h-102v90v0zM584 565h102v-89h-102v89v0zM751 131h129v-89h-129v89v0zM751 276h129v-90h-129v90v0zM751 421h129v-90h-129v90v0z
M751 565h129v-89h-129v89v0zM244 451l67 -106l70 112l58 3l-97 -155l104 -167l-63 3l-73 122l-75 -114l-59 3l104 153l-97 143l61 3v0zM244 451z" />
    <glyph glyph-name="zichanchuzhi01" unicode="&#xe613;" 
d="M192 620q-65 -65 -99 -149.5t-34 -170.5t34 -170.5t99 -149.5q97 -97 231.5 -124t254.5 23l-96 96q-82 -17 -163 6t-142 84q-48 47 -73 109.5t-25 125.5t25 125t73 110q64 64 149.5 86.5t171 0t149.5 -86.5q86 -86 96.5 -206.5t-57.5 -217.5l-113 113l100 100l-237 237
l-285 -285l237 -237l100 100l52 -52l61 -61l86 -86q25 19 45.5 39.5t39.5 45.5q67 88 86 196t-13.5 213.5t-112.5 185.5q-65 65 -149.5 99t-170.5 34t-170.5 -34t-149.5 -99zM488 167l-109 109l157 157l109 -109z" />
    <glyph glyph-name="sanhengzongleimu" unicode="&#xe696;" 
d="M159 519h706q21 0 35 14.5t14 34.5t-14 34.5t-35 14.5h-706q-21 0 -35 -14.5t-14 -34.5t14 -34.5t35 -14.5zM159 251h706q21 0 35 14.5t14 34.5t-14 34.5t-35 14.5h-706q-21 0 -35 -14.5t-14 -34.5t14 -34.5t35 -14.5zM159 -17h706q21 0 35 14.5t14 34.5t-14 34.5
t-35 14.5h-706q-21 0 -35 -14.5t-14 -34.5t14 -34.5t35 -14.5z" />
    <glyph glyph-name="gengduo" unicode="&#xe656;" 
d="M481 334q12 -12 30 -11q17 -1 29 11l331 332q11 11 11 26.5t-11 26.5t-26.5 11t-26.5 -11l-307 -308l-308 308q-11 11 -26.5 11t-26.5 -11t-11 -26.5t11 -26.5zM946 344q-11 11 -26.5 11t-26.5 -11l-382 -384l-383 384q-11 11 -26.5 11t-26.5 -11t-11 -26.5t11 -26.5
l406 -407q12 -12 30 -11q17 -1 29 11l406 407q11 11 11 26.5t-11 26.5z" />
    <glyph glyph-name="paixu" unicode="&#xe637;" 
d="M172 402h679l-339 407l-340 -407v0zM851 198h-679l340 -407l339 407v0zM851 198z" />
    <glyph glyph-name="zhangbianjilu" unicode="&#xe645;" 
d="M512 812q-175 0 -312 -106.5t-182 -271.5l113 -93q16 145 124.5 243.5t256.5 98.5q113 0 206.5 -60.5t140.5 -159.5l-123 -34l288 -131v2q0 139 -68.5 257t-186.5 186.5t-257 68.5v0zM512 -83q-114 0 -207.5 61t-139.5 160h123v1l-287 194q-1 -15 -1 -33
q0 -139 68.5 -257t186.5 -186.5t257 -68.5q121 0 228 53.5t178.5 146.5t95.5 208l-121 66q-14 -146 -123.5 -245.5t-257.5 -99.5v0zM598 516l-35 -73q-35 -72 -40 -87q-3 -9 -5 -16h-2q-17 42 -81 176h-95l109 -192h-82v-57h101v-44h-101v-58h101v-80h89v80h98v58h-98v44h98
v57h-79l112 192h-90v0zM598 516z" />
    <glyph glyph-name="xinfeng" unicode="&#xe614;" 
d="M64 748v-704h896v704h-896zM895 108h-767v419l384 -291v0v0l383 290v-418zM512 325l-384 291v68h767v-68z" />
    <glyph glyph-name="paixujiangxu" unicode="&#xe638;" horiz-adv-x="1025" 
d="M1024 580h-1024l512 -614z" />
    <glyph glyph-name="paixushengxu" unicode="&#xe639;" 
d="M0 44h1024l-512 614z" />
    <glyph glyph-name="chaxun" unicode="&#xe615;" horiz-adv-x="1025" 
d="M116.5 665q-78.5 -82 -105 -190t4.5 -215t112.5 -185.5t189.5 -105t215 4.5t185.5 112.5t105 190t-4 215t-112.5 185.5t-190 105t-215 -4.5t-185.5 -112.5zM610.5 191q-76.5 -80 -187.5 -82.5t-190.5 74.5t-82 187.5t74.5 190.5t187.5 82t190.5 -74.5t82 -187
t-74.5 -190.5zM627 44l217 -208q32 -30 76 -29t74.5 32.5t30 76t-32.5 74.5l-217 208z" />
    <glyph glyph-name="yishen" unicode="&#xe646;" 
d="M546 320v-45h76q8 0 12.5 1t7 3t3 6.5t0.5 12.5v22h-99zM640.5 417q-4.5 4 -15.5 4h-79v-46h99v29q0 9 -4.5 13zM381 402v-27h103v46h-85q-18 0 -18 -19zM381 296v0q0 -14 5.5 -17.5t15.5 -3.5h82v45h-103v-24zM868 742q-44 0 -92.5 13t-83.5 29.5t-68.5 37.5t-46 30.5
t-17.5 13.5q-20 17 -47.5 17t-47.5 -17q-6 -5 -17.5 -14t-45.5 -30t-68.5 -37.5t-83 -29.5t-92.5 -13q-30 0 -50.5 -19.5t-20.5 -47.5v-288q0 -138 91 -260t294 -255q18 -12 40.5 -12t40.5 12q203 133 294.5 255t91.5 260v288q0 28 -21 47.5t-50 19.5zM707 271
q0 -27 -11 -39.5t-41 -12.5h-109v-53q0 -19 -7 -25t-24 -6q-15 0 -23 6t-8 25v53h-113q-30 0 -41 12.5t-11 39.5v154q0 28 11 40t41 12h113v19q0 17 8.5 24t22.5 7q16 0 23.5 -7t7.5 -24v-19h109q30 0 41 -12t11 -40v-154zM759 541q0 -3 -3 -19q-2 -10 -5 -21
q-6 -20 -16 -25.5t-26 1.5q-9 3 -13 7t-5 9t0.5 12t4.5 18q3 7 0.5 12t-9.5 5h-339q-9 0 -12.5 -4t-3.5 -15l1 -15q0 -15 -9 -23.5t-22 -8.5q-16 0 -24 7t-8 24v28q0 31 15 46t47 15h151l-3 6q-7 12 -5 23.5t17 19.5q4 2 10.5 3.5t13 -0.5t13 -7t10.5 -14q6 -12 11 -31h137
q81 4 72 -53z" />
    <glyph glyph-name="shouruzhangdan" unicode="&#xe616;" horiz-adv-x="1025" 
d="M560 420h143v-47h-143v47zM464 588l-71 -168h-24l-72 168h-71l71 -168h-47v-47h95v-48h-95v-48h95v-71h72v71h95v48h-95v48h95v47h-48l72 168h-72zM226 158h215v-48h-215v48zM178 635h573v-262h48v310h-669v-764h358v48h-310v668zM691 325q-84 0 -143.5 -59.5
t-59.5 -143.5t59.5 -143.5t143.5 -59.5t143.5 59.5t59.5 143.5t-59.5 143.5t-143.5 59.5zM691.5 -9q-54.5 0 -93 38.5t-38.5 92.5t38.5 92.5t93 38.5t92.5 -38.5t38 -92.5t-38 -92.5t-92.5 -38.5zM226 62h215v-47h-215v47zM716 230h-49v-84h-83v-48h83v-84h49v84h83v48h-83
v84z" />
    <glyph glyph-name="100" unicode="&#xe66e;" 
d="M261 591l55 89v0q27 41 76 41t75 -41h118q27 41 76 41t75 -41v0l56 -89q-27 9 -56 9q-44 0 -82.5 -21.5t-61.5 -58.5h-131q-24 37 -62 58.5t-82 21.5q-29 0 -56 -9zM971 246q0 -82 -58.5 -140.5t-141.5 -58.5q-52 0 -96 24.5t-72 66.5q-29 -38 -77 -38t-77 38
q-27 -42 -71.5 -66.5t-95.5 -24.5q-83 0 -141.5 58.5t-58.5 140.5q0 59 32 108h-1l107 172q40 40 97 40q37 0 69 -19t50 -52l5 -9h171l5 9q17 33 49.5 52t69.5 19q56 0 96 -40l107 -172v0q32 -49 32 -108zM406 246.5q0 51.5 -36.5 88t-88 36.5t-88 -36.5t-36.5 -88t36.5 -88
t88 -36.5t88 36.5t36.5 88zM572 196q0 19 -13.5 32.5t-32.5 13.5t-32 -13.5t-13 -32.5t13 -32t32 -13t32.5 13t13.5 32zM895 246.5q0 51.5 -36.5 88t-88 36.5t-88 -36.5t-36.5 -88t36.5 -88t88 -36.5t88 36.5t36.5 88z" />
    <glyph glyph-name="gengduo1" unicode="&#xe658;" 
d="M960 -78h-176l176 176v-176zM64 147h761v-84h-761v84zM64 324h761v-84h-761v84zM64 501h761v-84h-761v84zM64 678h761v-84h-761v84z" />
    <glyph glyph-name="jinggao" unicode="&#xe65d;" horiz-adv-x="1104" 
d="M961 -209h-820q-41 0 -73 15.5t-48 44.5q-35 59 7 135l414 747q20 36 49 56t61 20t61 -20t49 -56l414 -747q42 -76 8 -135q-17 -29 -48.5 -44.5t-73.5 -15.5v0v0zM551 731q-22 0 -42 -37l-414 -746q-20 -37 -8 -58t54 -21h820q42 0 54.5 21t-8.5 58l-414 746
q-20 37 -42 37v0v0zM551 145q-16 0 -27.5 11t-11.5 28v352q0 17 11.5 28t27.5 11t27.5 -11t11.5 -28v-352q0 -17 -11.5 -28t-27.5 -11v0zM551 -47q25 0 43 18t18 43t-18 43t-43 18t-43 -18t-18 -43t18 -43t43 -18v0z" />
    <glyph glyph-name="htmal5icon23" unicode="&#xe63a;" 
d="M775 656q-51 55 -120.5 85t-147.5 30q-103 0 -191.5 -51.5t-139.5 -139.5t-51 -191.5t51 -191.5t139.5 -139.5t191.5 -51.5q131 0 233 81.5t135 205.5h-100q-30 -84 -103 -137.5t-165 -53.5q-118 0 -202.5 84t-84.5 202.5t84.5 203t202.5 84.5q115 0 201 -86l-153 -153
h334v334z" />
    <glyph glyph-name="xinxichaxun" unicode="&#xe617;" 
d="M669.5 92q-77.5 0 -132.5 54.5t-55 132t55 132.5t132.5 55t132.5 -55t55 -132.5t-55 -132t-132.5 -54.5zM669.5 420q-58.5 0 -100 -41.5t-41.5 -99.5t41.5 -99.5t100 -41.5t100 41.5t41.5 99.5t-41.5 99.5t-100 41.5zM874 37q-11 -5 -17 1l-89 89q-4 4 0.5 15.5t9.5 17.5
q11 11 22 0l89 -89q11 -11 0 -22q-8 -8 -15 -12zM455 275q0 87 56 151.5t134 64.5h18.5h20t16.5 -1t18 -3t15 -5.5t16 -8.5v178h-210q-44 0 -74.5 33t-30.5 80v76h-210q-43 0 -73.5 -33t-30.5 -80v-518q0 -47 30.5 -80t73.5 -33h327q-44 27 -70 75t-26 104zM561 668h190
l-292 172v-69q0 -43 30 -73t72 -30z" />
    <glyph glyph-name="baocun-copy" unicode="&#xe654;" 
d="M840 -102h-656q-68 0 -116 47.5t-48 115.5v646q0 68 48 115.5t116 47.5h656q68 0 116 -47.5t48 -115.5v-646q0 -68 -48 -115.5t-116 -47.5v0zM184 807q-42 0 -71 -29.5t-29 -70.5v-646q0 -41 29.5 -70.5t70.5 -29.5h656q42 0 71 29.5t29 70.5v646q0 41 -29 70.5t-71 29.5
h-656zM827 382h-630v488h630v-488v0zM261 446h502v361h-502v-361zM606 713h63v-212h-63v212zM606 713z" />
    <glyph glyph-name="biangeng" unicode="&#xe618;" 
d="M725 425v192h107h15.5t29.5 -6t29 -18t13 -28t3 -26l-1 -10v-285q4 -43 -19 -69q-10 -11 -26 -17t-27 -6l-11 -1h-113v186l-250 -224l250 -240v185h153q70 0 107 37t37 107v364q0 70 -37 107t-107 37h-153v185l-250 -227zM2 427h424v469h-424v-469zM2 -128h425v468h-425
v-468zM331 244v-279h-233v279h233z" />
    <glyph glyph-name="piliangtianjia-copy" unicode="&#xe651;" 
d="M614 440q0 9 -6 15t-15 6h-264q-9 0 -15.5 -6t-6.5 -15t6.5 -15.5t15.5 -6.5h264q9 0 15 6.5t6 15.5zM552 344.5q0 8.5 -6.5 15t-15.5 6.5h-201q-9 0 -15.5 -6.5t-6.5 -15t6.5 -15t15.5 -6.5h201q9 0 15.5 6.5t6.5 15zM329 271q-9 0 -15.5 -6.5t-6.5 -15.5t6.5 -15
t15.5 -6h117q9 0 16 6t7 15t-6.5 15.5t-15.5 6.5h-118zM603 95h-317q-16 0 -27 11t-11 27v363q0 16 11 27.5t27 11.5h363q16 0 27 -11.5t11 -27.5v-56q28 12 58 15v61q0 31 -22.5 53.5t-54.5 22.5h-75v27q0 31 -22 53.5t-54 22.5h-401q-32 0 -54.5 -22.5t-22.5 -53.5v-402
q0 -31 22.5 -53.5t54.5 -22.5h74v-27q0 -32 22.5 -54t54.5 -22h412q-44 20 -76 57zM135 198q-16 0 -27 11t-11 27v363q0 16 11 27.5t27 11.5h363q16 0 27 -11.5t11 -27.5v-7h-269q-32 0 -54.5 -22.5t-22.5 -53.5v-318h-55zM794 438q-83 0 -141.5 -58.5t-58.5 -141t58.5 -141
t141.5 -58.5t141.5 58.5t58.5 140.5q0 83 -58.5 141.5t-141.5 58.5zM923 215h-106v-105q0 -10 -6.5 -17t-16.5 -7t-16.5 7t-6.5 16v106h-106q-10 0 -16.5 7t-6.5 16.5t7 16.5t16 7h106v106q0 9 6.5 16t16.5 7t16.5 -7t6.5 -16v-106h106q10 0 16.5 -7t6.5 -16.5t-6.5 -16.5
t-16.5 -7z" />
    <glyph glyph-name="piliangshanchu-copy" unicode="&#xe652;" 
d="M794 438q-83 0 -141.5 -58.5t-58.5 -141t58.5 -141t141.5 -58.5t141.5 58.5t58.5 140.5q0 83 -58.5 141.5t-141.5 58.5zM902 131q-7 -7 -16.5 -7t-16.5 7q-18 18 -75 74q-53 -53 -75 -74q-6 -7 -16 -7t-16.5 7t-6.5 16.5t6 16.5q17 16 75 74l-75 75q-6 7 -6 17t6.5 16.5
t16 6.5t16.5 -7l75 -75l75 75q7 7 16.5 7t16.5 -6.5t7 -16.5t-7 -17l-75 -75q58 -58 75 -74q7 -7 7 -16.5t-7 -16.5zM552 344.5q0 8.5 -6.5 15t-15.5 6.5h-201q-9 0 -15.5 -6.5t-6.5 -15t6.5 -15t15.5 -6.5h201q9 0 15.5 6.5t6.5 15zM614 440q0 9 -6 15t-15 6h-264
q-9 0 -15.5 -6t-6.5 -15t6.5 -15.5t15.5 -6.5h264q9 0 15 6.5t6 15.5zM329 271q-9 0 -15.5 -6.5t-6.5 -15.5t6.5 -15t15.5 -6h117q9 0 16 6t7 15t-6.5 15.5t-15.5 6.5h-118zM603 95h-317q-16 0 -27 11t-11 27v363q0 16 11 27.5t27 11.5h363q16 0 27 -11.5t11 -27.5v-56
q28 12 58 15v61q0 31 -22.5 53.5t-54.5 22.5h-75v27q0 31 -22 53.5t-54 22.5h-401q-32 0 -54.5 -22.5t-22.5 -53.5v-402q0 -31 22.5 -53.5t54.5 -22.5h74v-27q0 -32 22.5 -54t54.5 -22h412q-44 20 -76 57zM135 198q-16 0 -27 11t-11 27v363q0 16 11 27.5t27 11.5h363
q16 0 27 -11.5t11 -27.5v-7h-269q-32 0 -54.5 -22.5t-22.5 -53.5v-318h-55z" />
    <glyph glyph-name="xiugaimima" unicode="&#xe67e;" 
d="M794 414h-501v101q0 91 64.5 155.5t155.5 64.5t155.5 -64.5t64.5 -155.5q0 -8 5.5 -14t14 -6t14.5 6t6 14q0 107 -76.5 183.5t-183.5 76.5t-183.5 -76.5t-76.5 -183.5v-101h-23q-25 0 -42.5 -18t-17.5 -43v-298q0 -25 17.5 -43t42.5 -18h564q25 0 42.5 18t17.5 43v298
q0 25 -17.5 43t-42.5 18zM814 55q0 -9 -6 -15t-14 -6h-564q-8 0 -14 6t-6 15v298q0 9 6 15t14 6h564q8 0 14 -6t6 -15v-298zM512.5 286q-15.5 0 -27 -11.5t-11.5 -26.5q0 -24 22 -35v-73q0 -7 5 -11.5t12 -4.5t11.5 4.5t4.5 11.5v73q22 11 22 35q0 15 -11.5 26.5t-27 11.5z
" />
    <glyph glyph-name="daibanxiang" unicode="&#xe619;" 
d="M773 663v19h-25q-90 64 -199 73v39h75v38h-75h-74h-75v-38h75v-39q-104 -9 -189.5 -65.5t-134.5 -147t-49 -195.5q0 -112 54.5 -206.5t149.5 -149.5t206 -55t206 55t149.5 149.5t54.5 206.5q0 94 -39.5 176.5t-109.5 139.5zM549 13v73h-74v-73q-117 13 -200.5 96.5
t-96.5 199.5h73v75h-73q13 117 96.5 200.5t200.5 95.5v-72h74v72q117 -13 200.5 -96t96.5 -200h-297v-37v-38h297q-13 -116 -96.5 -199.5t-200.5 -96.5zM512 384q-15 0 -26 -11t-11 -26.5t11 -26.5t26 -11t26 11t11 26.5t-11 26.5t-26 11zM848 645h37v37v38h-37v37h-38v37
h-74v-37h37v-75h75v-37z" />
    <glyph glyph-name="wodefangwu" unicode="&#xe66d;" 
d="M488 -61h-280q-8 0 -13.5 5.5t-5.5 13.5v407q0 10 9 17l281 211q4 3 10 3q8 0 13 -5t5 -13v-620q0 -8 -5.5 -13.5t-13.5 -5.5zM222 -28h252v575l-252 -188v-387zM378 75h-172v33h158v182h-158v33h172q8 0 13.5 -5t5.5 -13v-211q0 -8 -5.5 -13.5t-13.5 -5.5zM206 271h174
v-33h-174v33zM620 466h192v-33h-192v33zM620 412h192v-33h-192v33v0zM620 358h192v-33h-192v33zM620 304h192v-33h-192v33zM620 250h192v-33h-192v33zM206 215h174v-33h-174v33zM206 160h167v-33h-167v33zM816 -61h-347v33h333v572l-426 243v-305h-33v331q0 10 8.5 15.5
t17.5 0.5l456 -259q10 -6 10 -18v-594q0 -8 -5.5 -13.5t-13.5 -5.5zM406 779h33v-240h-33v240zM818 169h-208q-7 0 -12.5 5.5t-5.5 12.5v313q0 7 5.5 12.5t12.5 5.5h208v-33h-193v-283h193v-33zM770 -35h-33v97h-112v-97h-33v112q0 8 5.5 13.5t12.5 5.5h141q8 0 13.5 -5.5
t5.5 -13.5v-112z" />
    <glyph glyph-name="fuxuankuangyixuanze" unicode="&#xe64f;" 
d="M896 896h-768q-53 0 -90.5 -37.5t-37.5 -90.5v-768q0 -53 37.5 -90.5t90.5 -37.5h768q53 0 90.5 37.5t37.5 90.5v768q0 53 -37.5 90.5t-90.5 37.5zM973 0q0 -32 -22.5 -54.5t-54.5 -22.5h-768q-32 0 -54.5 22.5t-22.5 54.5v768q0 32 22.5 54.5t54.5 22.5h768
q32 0 54.5 -22.5t22.5 -54.5v-768zM429 19q113 212 242 395q45 62 101 128.5t90 101.5l34 34l-26 71q-17 -11 -44.5 -31t-99 -78.5t-124.5 -113.5q-54 -55 -108 -123.5t-80.5 -108t-26.5 -40.5l-184 167l-75 -77z" />
    <glyph glyph-name="iconfontanquan" unicode="&#xe61a;" 
d="M512 -43q-8 3 -21 8t-50.5 22.5t-72 37t-76 51t-71.5 64.5t-51 77t-21 89v375l363 130l363 -130v-375q0 -45 -20 -89t-52 -77.5t-71 -63.5t-77.5 -51.5t-70.5 -37t-52 -22.5zM663 517l-181 -181l-100 99l-60 -60l99 -99v0l61 -61l60 61v0l181 181z" />
    <glyph glyph-name="nv" unicode="&#xe66f;" 
d="M440 821q0 -30 21 -51.5t51.5 -21.5t52 21.5t21.5 51.5t-21.5 51.5t-52 21.5t-51.5 -21.5t-21 -51.5zM732 374l-48 276q-4 33 -29 55.5t-59 22.5h-85h-5h-78q-33 0 -58 -22.5t-29 -55.5l-27 -155l-21 -121q-3 -17 5.5 -30.5t23.5 -16t28 7t16 26.5l10 56l34 199h18
l-38 -213l-34 -190h71v-303q0 -15 10.5 -25.5t25.5 -10.5t25.5 10.5t10.5 25.5v303h7h5h10v-302q0 -15 10.5 -25.5t25.5 -10.5t25.5 10.5t10.5 25.5v302h76l-12 67l-60 336h18l45 -255q3 -17 15.5 -27t27.5 -7t23.5 16.5t5.5 30.5z" />
    <glyph glyph-name="back" unicode="&#xe61b;" 
d="M95 564l330 -329v199q23 0 39 -0.5t46 -3t52 -7t52 -14t51.5 -23t44.5 -34.5t37 -47.5t23.5 -63.5t9.5 -81q0 -105 -64.5 -186t-162.5 -102q157 22 263 145.5t106 289.5q0 67 -15.5 124t-39.5 97t-59.5 72.5t-70 52.5t-77.5 35t-75 22t-69.5 11t-54.5 4.5t-36 0.5v170z
" />
    <glyph glyph-name="caozuoyuanquanxian" unicode="&#xe670;" 
d="M602 69q-22 44 -22 78v118q-6 1 -11 2q-4 2 -9 6t-13 19t-7 32q9 3 27 42t19 51q5 4 12 11t19.5 29t13.5 44.5t-1 35.5t-5 15l-3 2q6 18 8.5 48.5t-1.5 66t-15 65.5t-37 47t-64 10q-9 17 -36 28.5t-60.5 12.5t-69.5 -19t-59 -60q-25 -45 -31 -97.5t12 -102.5
q0 -1 -1.5 -1.5t-3.5 -1.5t-4 -6.5t-3 -15.5q-2 -21 5.5 -47.5t18.5 -40.5q8 -11 23 -17q8 -51 48 -99q4 -17 -3 -31.5t-16 -20.5l-10 -6q-97 -19 -168.5 -66.5t-71.5 -102.5v-58q0 -99 361 -99q24 0 49 1q117 3 192 17q-9 9 -16 17q-43 48 -67 94zM900 313q-62 0 -111 37
q-49 -37 -111 -37q-21 0 -44 8v-174q0 -25 17 -58q17 -34 49 -69q28 -32 60 -56q12 -9 23 -15q4 -3 9 0q11 7 23 16q33 25 62 57q32 35 50 69q17 32 17 56v174q-23 -8 -44 -8z" />
    <glyph glyph-name="caozuoyuanquanxian1" unicode="&#xe67a;" 
d="M621 342q-3 5 -4 21t0 21l6 15q11 13 24 37t21 42l8 18q14 18 19.5 35t3.5 28.5t-5.5 20.5t-7.5 13l-5 4q2 8 3.5 49t-0.5 56q0 1 -1.5 7.5t-2 10t-2.5 11t-4 13t-5.5 14t-8 16t-11 16.5t-13.5 18q-19 22 -49 35t-50 15l-20 2h-32h-32q-9 0 -23 -2t-46 -15t-51 -35
q-7 -9 -13.5 -18t-11 -16.5t-8 -16t-5.5 -14t-4 -13t-2.5 -11t-1.5 -10t-2 -7.5q-2 -15 -0.5 -56t3.5 -49l-4.5 -4.5t-7.5 -12.5t-6 -21t4.5 -28t19.5 -35q28 -69 52 -97q6 -10 6 -15q1 -6 0 -21.5t-4 -21.5q-29 -50 -66 -54q-19 -2 -37.5 -0.5t-38 -0.5t-30.5 -10
q-19 -14 -42 -34.5t-52 -55.5t-36 -62q-32 -126 40 -146h472v48h-73q-48 -1 -199 0.5t-168 5.5q-18 5 -18 24t7 47q4 25 38.5 62t59.5 53q12 8 20.5 10t33 4t48.5 5t43 15t31 28.5t18 28t10 23.5q6 18 4 48.5t-7 34.5q-4 5 -17.5 28t-16.5 29l-14 35q-18 21 -22 38.5
t-0.5 24t7.5 8.5q4 3 3 49q0 5 -0.5 16t-0.5 17t0.5 17.5t2.5 25t5 31.5q5 27 32 45.5t52 23.5l24 6h47q4 -1 10.5 -2.5t23.5 -7t31 -13t27 -21.5t16 -31q4 -22 5.5 -40l2 -24t0 -24t-0.5 -19q-1 -46 3 -49q4 -2 7.5 -8.5t-0.5 -24t-22 -38.5q-12 -28 -14 -35q-2 -6 -16 -29
t-18 -28q-5 -4 -6.5 -34.5t3.5 -48.5q11 -34 33 -58l37 53q-5 7 -9 15zM648 230h43q0 34 25.5 57.5t61.5 23.5t61.5 -23.5t25.5 -57.5h44q0 51 -38.5 86.5t-92.5 35.5t-92 -35.5t-38 -86.5zM923 203h-290q-12 0 -20.5 -8t-8.5 -19v-203q0 -11 8.5 -19t20.5 -8h290
q12 0 20.5 8t8.5 19v203q0 11 -8.5 19t-20.5 8zM800 60v-39q0 -8 -6.5 -14.5t-15.5 -6.5t-15.5 6.5t-6.5 14.5v39q-22 12 -22 35q0 17 13 28.5t31 11.5v0q18 0 31 -11.5t13 -28.5q0 -23 -22 -35z" />
    <glyph glyph-name="dayin2" unicode="&#xe61c;" 
d="M233 137h-8h-94q-11 0 -16 4.5t-5 15.5v195q0 39 26 65.5t66 28.5h32v10v247q0 25 13.5 38.5t37.5 13.5h316q49 -1 85 -36q33 -32 69 -68q34 -35 35 -85v-111v-9h30q34 -1 59 -20.5t32 -51.5q2 -10 2 -24q1 -51 1 -192q0 -12 -5 -16.5t-16 -4.5h-93h-10v-74q0 -19 -9 -31
q-15 -19 -40 -19h-186h-270q-24 0 -37.5 13.5t-13.5 38.5v70zM728 569h-9h-65q-26 0 -40 20q-9 12 -9 31v73h-309v-308h432v184zM728 198h-432v-123h432v123zM821 384q-13 0 -22 -9t-9 -22t9 -22t21.5 -9t22 9t9.5 22t-9 22t-22 9z" />
    <glyph glyph-name="xiangxiazhedie" unicode="&#xe633;" 
d="M128 574l361 -359q1 0 1.5 -0.5l0.5 -0.5v0q10 -10 23.5 -10t23.5 10l358 361q10 10 10 23.5t-10 23t-23.5 9.5t-22.5 -9l-336 -339l-340 337q-10 10 -23.5 10t-23 -10t-9.5 -23.5t10 -22.5z" />
    <glyph glyph-name="xiangshangzhedie" unicode="&#xe634;" 
d="M896 262l-362 358l-0.5 0.5t-1.5 0.5v1q-9 9 -23 9t-23 -9l-358 -362q-10 -10 -10 -23.5t9.5 -23t23 -9.5t23.5 10l336 338l340 -337q9 -9 22.5 -9t23.5 9.5t10 23t-10 23.5z" />
    <glyph glyph-name="01" unicode="&#xe671;" 
d="M512 -76q-93 0 -178.5 36.5t-147 98t-98 147t-36.5 178.5t36.5 178.5t98 147t147 98t178.5 36.5t178.5 -36.5t147 -98t98 -147t36.5 -178.5t-36.5 -178.5t-98 -147t-147 -98t-178.5 -36.5v0zM512 800q-113 0 -209 -55.5t-151.5 -151.5t-55.5 -209t55.5 -209t151.5 -151.5
t209 -55.5t209 55.5t151.5 151.5t55.5 209t-55.5 208.5t-151.5 151.5t-209 56v0zM742 115q0 -2 -46 -3v9q0 76 -54 130t-130 54t-130 -54t-54 -130v-8q-46 1 -46 2q0 75 43 134.5t111 83.5q36 -18 76 -18t76 18q68 -24 111 -83.5t43 -134.5zM341 485q0 -71 50 -121t121 -50
t121 50t50 121t-50 121t-121 50t-121 -50t-50 -121z" />
    <glyph glyph-name="icon3" unicode="&#xe650;" 
d="M875 -128h-727q-61 0 -104.5 43.5t-43.5 105.5v727q0 61 43.5 104.5t104.5 43.5h727q62 0 105.5 -43.5t43.5 -104.5v-727q0 -62 -43.5 -105.5t-105.5 -43.5zM964 688q0 62 -43.5 105.5t-104.5 43.5h-608q-62 0 -105.5 -43.5t-43.5 -105.5v-608q0 -61 43.5 -104.5
t105.5 -43.5h608q61 0 104.5 43.5t43.5 104.5v608z" />
    <glyph glyph-name="zichan" unicode="&#xe61d;" 
d="M425 22v0q-5 7 -10 7q-96 9 -165 36q-50 19 -76 44q-24 23 -24 47v25v26q79 -58 218 -80l9 -2l-2 9q-6 28 -8 53v6h-5q-71 12 -122 33q-44 19 -68 43q-22 22 -22 45v17v36q81 -60 221 -81l5 -1l2 5q7 27 18 50l4 8l-9 1q-87 11 -148 36q-45 19 -70 43q-23 22 -23 45v13
v42q44 -32 109 -54q87 -30 195 -35v0h1h1q11 0 16 4q32 30 77 51l29 14l-32 -2q-153 -8 -270 28q-53 17 -86 41q-39 28 -40 60q0 31 38 60q32 23 85 41q80 26 183 30q108 4 202 -18q99 -24 144 -64q24 -23 24 -48q1 -29 -31 -55t-97 -48l-27 -9l28 -3q44 -5 75 -17v0h1
q9 -3 14 0q19 10 37 24v-22v-22v-3l4 -2q24 -15 51 -38l10 -9v14v109v72q5 57 -49 104q-33 29 -83 51q-72 31 -165 44q-115 14 -226 -3q-95 -15 -165 -49q-49 -23 -79 -54q-37 -38 -38 -80v0q-1 -181 -1 -404v-81q1 -46 43 -87q48 -46 137 -75q92 -29 200 -32l16 -1l-12 12
q-27 26 -44 50zM929 282q-25 90 -99 146q-37 28 -82 41q-45 14 -91 11q-56 -3 -107 -30.5t-86 -72.5q-61 -79 -57 -179q3 -97 65 -169q60 -71 150 -88q25 -5 50 -5q70 0 130 34q79 45 115 131q37 88 12 181zM639 21q34 16 39 105q2 -35 14.5 -65t30.5 -43q-12 -2 -37 -2
t-47 5zM792 79q-28 -7 -55 6q-29 14 -47 46l-11 20l1 8l-3 -5v1v-1l-10 -20q-17 -33 -44.5 -48.5t-57.5 -8.5q-30 8 -49 35q-21 30 -21 77q0 21 7 38.5t22 32t26 22t31 20.5q15 9 22 14q30 20 55 48q12 15 20 28q24 -40 74 -77q8 -6 27 -17q20 -13 30.5 -21t24.5 -22
t20 -30.5t6 -36.5q0 -47 -20 -74.5t-48 -34.5z" />
    <glyph glyph-name="jibenxinxi" unicode="&#xe640;" 
d="M892 887h-760q-23 0 -40 -16.5t-17 -40.5v-931q0 -11 7.5 -18.5t18.5 -7.5q12 0 19 8q100 109 129 124q11 -4 42 -54q12 -18 18.5 -27.5t17.5 -22.5t22.5 -19t24.5 -6q17 0 34 12t26.5 24.5t27.5 38.5q38 55 50 55q10 0 45 -54q12 -19 18.5 -28t17.5 -21.5t22 -18.5
t23 -7h3v0q16 0 34 11.5t29 23.5t31 36q42 50 56 54q25 -20 99 -117q10 -13 26 -13q14 0 23.5 9.5t9.5 23.5v925q0 24 -17 40.5t-40 16.5zM903 -57q-37 48 -60.5 72.5t-30.5 28.5t-14 4q-25 2 -46.5 -16t-51.5 -55q-45 -54 -59 -54q-11 1 -46 54q-11 18 -18 27.5t-18.5 22.5
t-23 19t-23.5 6q-17 0 -34 -12.5t-26.5 -25t-27.5 -37.5q-38 -55 -50 -55q-10 0 -44 54q-11 18 -18 28t-18 23t-22.5 19t-24.5 6q-29 0 -126 -103v881q0 5 3.5 8t7.5 3h760q4 0 7.5 -3t3.5 -8v-887zM274 556h476q15 0 25.5 10.5t10.5 25t-10.5 25t-25.5 10.5h-476
q-15 0 -25.5 -10.5t-10.5 -25t10.5 -25t25.5 -10.5zM750 467h-476q-15 0 -25.5 -10.5t-10.5 -25.5t10.5 -25t25.5 -10h476q15 0 25.5 10t10.5 25t-10.5 25.5t-25.5 10.5zM750 307h-476q-15 0 -25.5 -10.5t-10.5 -25.5t10.5 -25.5t25.5 -10.5h476q15 0 25.5 10.5t10.5 25.5
t-10.5 25.5t-25.5 10.5v0z" />
    <glyph glyph-name="more4" unicode="&#xe657;" 
d="M512 671q47 0 79.5 33t32.5 79.5t-32.5 79.5t-79.5 33t-79.5 -33t-32.5 -79.5t32.5 -79.5t79.5 -33zM512 496q-47 0 -79.5 -32.5t-32.5 -79.5t32.5 -79.5t79.5 -32.5t79.5 32.5t32.5 79.5t-32.5 79.5t-79.5 32.5zM512 97q-47 0 -79.5 -33t-32.5 -79.5t32.5 -79.5
t79.5 -33t79.5 33t32.5 79.5t-32.5 79.5t-79.5 33z" />
    <glyph glyph-name="i" unicode="&#xe61e;" 
d="M512 819q-89 0 -169.5 -34.5t-138.5 -92.5t-92.5 -138.5t-34.5 -169.5t34.5 -169.5t92.5 -138.5t138.5 -92.5t169.5 -34.5t169.5 34.5t138.5 92.5t92.5 138.5t34.5 169.5t-34.5 169.5t-92.5 138.5t-138.5 92.5t-169.5 34.5v0zM495 151q12 -1 35 16.5t43 35.5t25 18
q4 -1 7.5 -5.5t2.5 -10.5q-1 -10 -23 -31.5t-53.5 -43t-72.5 -35.5t-74 -11q-27 4 -41 18.5t-11 40.5q5 45 55 135l86 159q5 12 2.5 19t-9.5 7q-15 2 -38 -16t-42.5 -36.5t-26.5 -18.5q-5 1 -8 5.5t-3 8.5q2 15 62 63q74 56 150 47q16 -2 29 -9t21 -20.5t5 -37.5t-19 -55
l-89 -177q-21 -39 -23 -51q-1 -13 10 -15v0zM691 612q-4 -32 -29.5 -51t-58.5 -16q-29 4 -44.5 23.5t-11.5 48.5q3 31 29 50.5t57 16.5q29 -3 45 -23t13 -49v0zM691 612z" />
    <glyph glyph-name="c-databackup" unicode="&#xe660;" 
d="M910 34h-0.5h-0.5q-1 -1 -4.5 -2t-4.5 -2v0q-4 -1 -10 -3h-1q-4 -2 -10 -4h-0.5h-0.5q-5 -2 -10 -3q0 -1 -1 -1q-10 -3 -21 -6h-1q-6 -1 -11 -2l-0.5 -0.5t-1.5 -0.5q-6 -1 -11 -2h-1q-6 -1 -11 -2v0l-12 -2h-0.5h-1.5q-5 -1 -11 -2h-2q-6 -1 -11 -1h-1q-6 -1 -12 -1h-1
q-6 -1 -12 -1h-2h-0.5h-0.5q-12 -72 -113 -120q43 -7 88 -7q127 0 217 47.5t90 115.5v107h-2q-13 -64 -112 -108v0zM1024 416v4q0 64 -81 110.5t-200 51.5v-324q22 1 43 4q101 12 168 55t70 99zM910 226h-0.5h-0.5q-1 0 -4.5 -1.5t-4.5 -1.5v0q-3 -1 -10 -4h-1q-4 -2 -10 -3
q0 -1 -0.5 -1h-0.5q-5 -1 -10 -3h-0.5h-0.5q-10 -3 -21 -6h-1v0q-5 -2 -11 -3h-2q-5 -1 -11 -2l-1 -1q-5 -1 -11 -2v0q-5 -1 -12 -1q0 -1 -2 -1q-5 0 -11 -1h-1h-1q-6 -1 -11 -2h-1v0q-6 0 -12 -1h-0.5h-0.5h-12h-0.5h-1.5v-127q119 5 200 52t81 110v108h-2
q-14 -68 -112 -109zM348.5 308q94.5 0 174.5 25t126.5 67t46.5 93v122h-2q-7 -37 -40.5 -69t-86.5 -53v0l-1 -1l-10 -4v0l-12 -4v-1l-12 -4h-1q-6 -2 -11 -4h-1v0q-13 -3 -25 -6q0 -1 -0.5 -1h-0.5q-6 -1 -12 -3h-2l-12 -2l-2 -1l-12 -2h-1q-6 -1 -13 -2h-2l-12 -2h-1.5
h-1.5q-7 -1 -13 -2h-0.5h-0.5q-6 0 -13 -1h-0.5h-0.5q-7 0 -14 -1h-2h-14h-2h-13.5h-14.5h-1h-1h-13h-3q-7 1 -13 1h-1h-1q-7 1 -13 1h-0.5h-0.5q-6 1 -13 2h-1h-1q-7 1 -13 2h-2q-7 1 -13 2v0q-7 1 -13 2q-1 0 -1 1q-6 1 -13 2h-1q-7 2 -13 3h-0.5t-0.5 1l-24 6h-0.5h-0.5
l-12 4h-1q-6 2 -11 4l-1 1q-6 2 -11 4v0q-6 2 -11 4l-1 1v0q-53 21 -86 53t-41 69h-2v-122q0 -51 46.5 -93t127 -67t175 -25zM348.5 90q94.5 0 174.5 24.5t126.5 67t46.5 92.5v124h-2q-14 -74 -127 -124h-1l-10 -4h-1q-5 -2 -11 -5v0l-12 -4h-0.5h-0.5q-6 -2 -11 -4h-1v0
q-13 -4 -25 -7h-0.5h-0.5q-6 -1 -12 -3h-1h-1q-6 -1 -12 -3h-1h-1l-12 -2h-1q-6 -1 -13 -2h-2l-12 -2h-3q-7 -1 -13 -2h-0.5h-0.5q-6 0 -13 -1h-1q-7 0 -14 -1h-1h-1h-14h-2q-7 -1 -13.5 -1t-14.5 1h-2h-13h-2h-1q-7 1 -13 1h-2q-7 1 -13 1h-0.5h-0.5q-6 1 -13 2h-2
q-7 1 -13 2h-2q-7 1 -13 2v0q-6 1 -13 2h-0.5h-0.5q-6 2 -13 3h-0.5h-0.5q-7 2 -13 3h-1q-12 3 -24 7h-0.5h-0.5l-12 4h-1q-6 2 -11 4h-1q-6 3 -11 5v0q-2 0 -5.5 1.5t-5.5 2.5h-0.5h-0.5q-112 50 -127 124h-2v-124q0 -50 46.5 -92.5t127 -67t175 -24.5zM696 56v125h-2
q-15 -75 -127 -125v0h-1l-10 -4v0q-6 -2 -12 -5v0l-12 -4h-1q-6 -2 -11 -4h-0.5h-0.5q-13 -4 -25 -7h-0.5h-0.5q-6 -1 -12 -3h-2q-7 -2 -12 -3h-1h-1l-12 -2h-1q-6 -1 -13 -2h-0.5t-1.5 -1q-6 0 -12 -1h-3q-7 -1 -13 -2h-0.5h-0.5q-6 -1 -13 -1h-0.5h-0.5q-7 -1 -14 -1h-2
h-14h-2q-7 -1 -13.5 -1t-14.5 1h-1h-1h-13h-3q-7 0 -13 1h-1.5h-0.5q-6 0 -13 1h-0.5h-0.5q-6 1 -13 2h-2q-7 1 -13 1q0 1 -2 1q-7 1 -13 2v0q-7 1 -13 2h-1v0q-6 1 -13 3h-1q-7 2 -13 3h-0.5h-0.5q-12 3 -24 7h-0.5h-0.5l-12 4h-1q-6 2 -11 4h-1q-6 2 -11 5v0q-6 2 -11 4
h-1v0q-112 50 -127 125h-2v-125q0 -50 46.5 -92.5t127 -67t175 -24.5t174.5 24.5t126.5 67t46.5 92.5v0zM270 532q38 -5 78 -5t79 5q114 14 190 62.5t79 112.5v5q0 50 -46.5 92.5t-126.5 67t-174.5 24.5t-175 -24.5t-127 -67t-46.5 -92.5v-5q3 -64 79 -112.5t191 -62.5z" />
    <glyph glyph-name="m-BuildingQuality" unicode="&#xe6b6;" 
d="M492 873l-408 -335v-95l403 335l453 -335v95zM201 490h597l-77 57h-446zM351 607h289l-149 109zM828 896h-98v-165l98 -67v232zM594 16h228v38h-228v59h228v61h-228v60h228v72h-228v60h228v65h-643v-65h218v-60h-218v-72h218v-60h-218v-61h218v-59h-218v-38h218v-23h-313
v-121h856v121h-346v23zM572 -13h-160v383h160v-383z" />
    <glyph glyph-name="jibenxinxi1" unicode="&#xe641;" 
d="M67 43q0 -29 21 -49.5t50 -20.5h748q29 0 49.5 20.5t20.5 49.5v538h-889v-538zM512 464h374v-47h-374v47zM512 370h374v-47h-374v47zM512 277h374v-47h-374v47zM512 183h374v-47h-374v47zM512 90h374v-47h-374v47zM138 464h280v-421h-280v421zM886 814h-748
q-29 0 -50 -20.5t-21 -49.5v-117h889v117q0 29 -20.5 49.5t-49.5 20.5zM161 674q-19 0 -33 14t-14 33t14 33t33 14t33 -14t14 -33t-14 -33t-33 -14zM301.5 674q-19.5 0 -33.5 14t-14 33t14 33t33.5 14t33 -14t13.5 -33t-13.5 -33t-33 -14zM441.5 674q-19.5 0 -33 14
t-13.5 33t13.5 33t33 14t33 -14t13.5 -33t-13.5 -33t-33 -14zM159 441h238v-374h-238v374z" />
    <glyph glyph-name="xingxing2" unicode="&#xe61f;" horiz-adv-x="1076" 
d="M350 569q-104 0 -202.5 -18t-109.5 -54q-12 -34 58.5 -107.5t158.5 -135.5q11 -8 7 -20q-22 -62 -36.5 -127t-17 -122t19.5 -71q7 -6 22 -6v0q48 0 131 49.5t143 96.5q11 9 23 0q60 -47 143 -96.5t131 -49.5q14 0 22 6q20 14 19.5 70t-14 119.5t-33.5 123.5q-4 12 7 20
q85 65 153.5 140.5t57.5 109.5q-5 16 -38 31.5t-109 28t-178 12.5q-14 0 -18 14q-17 61 -42 122t-56.5 107t-56 46t-58.5 -46.5t-61.5 -107t-48.5 -122.5q-4 -13 -17 -13v0zM250 -128q-26 0 -44 13q-55 39 -20 208q14 67 37 140q-62 45 -113 93q-128 118 -107 183
q10 30 51.5 51t100.5 29.5t100.5 12t81.5 3.5q25 72 56 135q75 154 142 154q68 0 137 -155q27 -62 49 -134q42 0 85 -3.5t104 -12.5t104.5 -29.5t53.5 -50.5q20 -64 -103 -186q-51 -49 -111 -97q22 -70 34 -137q31 -165 -24 -204q-17 -13 -43 -13q-31 0 -74 17t-87 44
t-72.5 46.5t-52.5 37.5q-24 -18 -52 -37.5t-72 -46.5t-87.5 -44t-73.5 -17v0zM181 456q-4 0 -5 4q-3 5 3 8q59 26 226 27q34 90 60 131q3 5 8 2t2 -8q-24 -37 -60 -133q-1 -4 -5 -4h-1q-167 0 -225 -26q-2 -1 -3 -1v0z" />
    <glyph glyph-name="zichanshezhi" unicode="&#xe620;" 
d="M503 359h-176q-11 0 -18.5 -7t-7.5 -17.5t7.5 -18t18.5 -7.5h176q11 0 18 7.5t7 18t-7 17.5t-18 7v0zM503 259h-176q-11 0 -18.5 -7.5t-7.5 -18t7.5 -18t18.5 -7.5h176q11 0 18 7.5t7 18t-7 18t-18 7.5v0zM415 410q-11 0 -18 -7.5t-7 -17.5v-253q0 -10 7 -17.5t17.5 -7.5
t18 7.5t7.5 17.5v253q0 10 -7.5 17.5t-17.5 7.5v0zM326 511q-10 0 -17.5 -7.5t-7.5 -18t7 -17.5l89 -89q8 -8 18.5 -8t17.5 7.5t7 18t-7 17.5l-89 90q-8 7 -18 7v0zM504 510q-11 0 -18 -7l-89 -89q-8 -8 -8 -18.5t7.5 -18t18 -7.5t17.5 8l90 89q7 7 7 17.5t-7.5 18
t-17.5 7.5v0zM813 -79q-11 0 -19 6q-3 2 -6 5q-6 6 -14 12q-14 11 -24 11t-24 -11q-13 -9 -14 -12q-3 -3 -6 -5q-18 -11 -35 -1l-47 26q-11 7 -15 18.5t1 22.5q4 10 4 18q0 18 -12.5 31.5t-31.5 14.5q-11 0 -19.5 7.5t-10.5 18.5q-4 25 -4 41q0 17 4 41q2 11 10.5 18.5
t19.5 8.5q19 1 31.5 14.5t12.5 31.5q0 8 -4 18q-5 11 -1 22.5t15 17.5l50 28q19 10 37 -3l4 -4v0v0q7 -6 13 -11q15 -10 24 -10t24 10q8 6 13 11q3 3 6 5q17 11 35 1l48 -27q11 -6 15 -17.5t-1 -23.5q-4 -9 -4 -17q0 -18 12.5 -31.5t31.5 -14.5q11 -1 19.5 -8.5t10.5 -18.5
q4 -24 4 -41q0 -16 -4 -40q-2 -11 -10.5 -19t-19.5 -8q-19 -1 -31.5 -14.5t-12.5 -31.5q0 -9 4 -18q5 -11 1 -23t-15 -18l-49 -27q-8 -4 -16 -4zM750 19q31 0 62 -23q3 -2 5 -4l8 4q-1 8 -1 15q0 36 21.5 65t55.5 40q1 5 1 8q0 4 -1 9q-34 10 -55.5 39t-21.5 66q0 7 1 14
l-8 5q-2 -2 -5 -4q-60 -42 -121 1q-2 2 -5 3l-9 -5q1 -7 1 -14q0 -37 -21.5 -66t-55.5 -39q-1 -5 -1 -8.5t1 -8.5q34 -11 55.5 -40t21.5 -65q0 -7 -1 -15l6 -3q2 1 5 3q31 23 62 23zM424 -47q-169 0 -267.5 81t-98.5 219q0 12 2 25q9 105 88 221.5t172 177.5l-46 109
q-10 25 2 44q7 11 19.5 15t24.5 -1q49 -22 100 -22q53 0 110 23q11 4 23 0t19 -15q13 -19 2 -44l-46 -109q61 -40 120 -109t96 -144q6 -12 1.5 -24.5t-16 -18.5t-24 -1.5t-18.5 16.5q-37 74 -97 141.5t-117 97.5q-11 6 -15 17.5t1 23.5l38 92q-42 -10 -77 -10q-32 0 -69 9
l39 -91q4 -12 0 -23.5t-15 -17.5q-82 -44 -162.5 -156t-88.5 -207q-2 -12 -2 -19q0 -45 13.5 -81.5t34 -60.5t49.5 -42t56.5 -27.5t58.5 -15.5t51 -7.5t39 -1.5q17 0 33 1q13 2 23 -7t11 -22.5t-8 -23.5t-22 -10q-18 -2 -37 -2zM486 633h-131q-14 0 -23 9t-9 22.5t9 23
t23 9.5h131q13 0 22.5 -9.5t9.5 -23t-9.5 -22.5t-22.5 -9z" />
    <glyph glyph-name="quxiao1" unicode="&#xe695;" 
d="M512 -128q-138 0 -256 69t-187 187t-69 256t69 256t187 187t256 69t256 -69t187 -187t69 -256t-69 -256t-187 -187t-256 -69v0zM512 845q-94 0 -179.5 -36.5t-147 -98t-98 -147t-36.5 -179.5t36.5 -179.5t98 -147t147 -98t179.5 -36.5t179.5 36.5t147 98t98 147
t36.5 179.5t-36.5 179.5t-98 147t-147 98t-179.5 36.5v0zM768 582l-58 58l-198 -205l-198 205l-58 -58l205 -198l-205 -198l58 -58l198 205l198 -199l52 52l-199 198z" />
    <glyph glyph-name="sangangy" unicode="&#xe621;" 
d="M141 607h742q31 0 52.5 21.5t21.5 52.5t-21.5 52.5t-52.5 21.5h-742q-31 0 -52.5 -21.5t-21.5 -52.5t21.5 -52.5t52.5 -21.5zM883 458h-742q-31 0 -52.5 -21.5t-21.5 -52.5t21.5 -52.5t52.5 -21.5h742q31 0 52.5 21.5t21.5 52.5t-21.5 52.5t-52.5 21.5zM883 161h-742
q-31 0 -52.5 -21.5t-21.5 -52.5t21.5 -52.5t52.5 -21.5h742q31 0 52.5 21.5t21.5 52.5t-21.5 52.5t-52.5 21.5z" />
    <glyph glyph-name="right" unicode="&#xe63b;" 
d="M301 751l456 -379l-456 -379v758z" />
    <glyph glyph-name="chexiao" unicode="&#xe6e9;" 
d="M609 499h-415l201 199q14 14 14 31t-13.5 30.5t-30 14t-29.5 -13.5l-273 -267q-13 -13 -13 -29t13 -30l273 -267q13 -13 29.5 -13t30 13.5t13.5 29.5t-14 29l-201 196h415q82 0 154 -39t114.5 -106t42.5 -145v-42q0 -18 11 -29.5t28.5 -11.5t28 11.5t10.5 29.5v42
q0 102 -52.5 186.5t-141.5 132.5t-195 48z" />
    <glyph glyph-name="xinxi" unicode="&#xe697;" horiz-adv-x="1025" 
d="M0 384v70q0 34 21.5 55t55.5 21h140q32 0 53.5 -20t21.5 -52q2 -74 0 -148q0 -32 -21.5 -52t-53.5 -20h-142q-32 0 -53.5 21t-21.5 53v24v24v24zM74 457v-146h145v146h-145zM0 18v22.5v26v22.5q0 34 21.5 55t55.5 21h139q33 0 54.5 -21t22.5 -54v-143q-1 -33 -22 -54
t-55 -21h-141q-32 0 -53.5 21t-21.5 53v72zM219 -55v146h-145v-146h145zM713 347h-270q-28 0 -38 23q-7 16 1.5 31.5t25.5 18.5q5 1 12 1h539q35 0 40 -31q3 -14 -5.5 -26.5t-22.5 -15.5q-5 -1 -14 -1h-268zM714 55h270q31 0 39 -26q4 -16 -4.5 -30t-25.5 -17h-10h-170h-200
h-169q-34 0 -41 28q-3 16 6 29t24 15q5 1 12 1h269zM713 713h-271q-30 0 -38 25q-6 17 4.5 32t28.5 16h7h539q35 0 40 -30q3 -15 -6.5 -28t-24.5 -14q-3 -1 -10 -1h-269zM110 729l43 43l111 111q13 12 28 13t26 -10.5t10.5 -26.5t-12.5 -27q-89 -90 -179 -179
q-12 -13 -27 -13t-28 13l-70 70q-12 11 -12 26.5t11 26.5t26 10.5t27 -12.5l44 -44l1 -0.5z" />
    <glyph glyph-name="xxjt" unicode="&#xe690;" horiz-adv-x="1707" 
d="M826 119l-480 479l92 92l388 -389l388 389l91 -92z" />
    <glyph glyph-name="xinshixin" unicode="&#xe622;" 
d="M695 784q-105 0 -182 -72q-77 72 -183 72q-110 0 -187.5 -76t-77.5 -184q0 -43 15 -89t41 -87.5t60 -82.5t71 -76.5t74 -67.5t70.5 -57t59.5 -43t41.5 -28l15.5 -10q9 6 25 16.5t63 44t89 68.5t94 86.5t89 101.5t62.5 110t25.5 114q0 108 -78 184t-188 76v0z" />
    <glyph glyph-name="16chajianyingyongtianjia" unicode="&#xe672;" 
d="M512 896q-138 0 -256 -69t-187 -187t-69 -256t69 -256t187 -187t256 -69t256 69t187 187t69 256t-69 256t-187 187t-256 69zM704 320h-128v-128q0 -29 -17.5 -46.5t-46.5 -17.5q-28 0 -46 19.5t-18 44.5v128h-128q-29 0 -46.5 17.5t-17.5 46.5q0 28 19.5 46t44.5 18h128
v128q0 29 17.5 46.5t46.5 17.5q28 0 46 -19.5t18 -44.5v-128h128q29 0 46.5 -17.5t17.5 -46.5q0 -28 -19.5 -46t-44.5 -18z" />
    <glyph glyph-name="batchreview" unicode="&#xe65b;" 
d="M216 628h596v-54h-596v54zM994 497l-38 38q-7 8 -18 8t-19 -8l-57 -56l76 -76l56 57q8 8 8 19t-8 18zM599 215l-25 -100l100 25zM844 460l75 -75l-226 -226l-75 75zM216 411h505l54 54h-559v-54zM615 303h-399v-54h345zM846 -28h-670v772h670v-197l32 33q8 8 19 7v157
q0 22 -15 37t-36 15h-52q0 21 -15 36t-36 15h-669q-22 0 -37 -15t-15 -36v-772q0 -22 15 -37t37 -15h51q0 -21 15 -36t36 -15h670q21 0 36 15t15 36v336l-51 -52v-284v0zM125 744v-720h-51v772h102q-21 0 -36 -15t-15 -37v0zM216 86h307l15 54h-322v-54z" />
    <glyph glyph-name="xsjt2" unicode="&#xe691;" 
d="M511.5 653q31.5 0 53.5 -22l372 -374q22 -22 22 -53t-22 -53.5t-53.5 -22.5t-53.5 23l-318 320l-319 -320q-22 -22 -53.5 -22.5t-53.5 22t-22 53.5t22 53l372 374q22 22 53.5 22z" />
    <glyph glyph-name="xiangxixinxi1" unicode="&#xe659;" 
d="M393 224h-94q-10 0 -17.5 -7.5t-7.5 -18.5t7.5 -18.5t17.5 -7.5h94q10 0 17.5 7.5t7.5 18.5t-7.5 18.5t-17.5 7.5zM393 104h-94q-10 0 -17.5 -7.5t-7.5 -18t7.5 -18t17.5 -7.5h94q10 0 17.5 7.5t7.5 18t-7.5 18t-17.5 7.5zM393 330h-94q-10 0 -17.5 -7.5t-7.5 -18
t7.5 -18t17.5 -7.5h94q10 0 17.5 7.5t7.5 18t-7.5 18t-17.5 7.5zM474 304.5q0 -10.5 7.5 -18t17.5 -7.5h227q10 0 17.5 7.5t7.5 18t-7.5 18t-17.5 7.5h-227q-10 0 -17.5 -7.5t-7.5 -18zM852 471q-36 48 -133 162t-161 186q-4 5 -10 7l-2 3h-10v0v0h-322q-25 0 -46 -19
t-21 -45v-759q0 -26 20.5 -46.5t46.5 -20.5h602q26 0 45 22q17 20 17 45v435zM560 734l240 -280h-236q-4 6 -4 13v267zM826 6q0 -6 -3.5 -11t-6.5 -5h-602q-4 0 -10 6t-6 10v759q0 3 5.5 8t10.5 5h294v-311q0 -23 14.5 -43.5t37.5 -20.5h266v-397zM431 635h-133
q-11 0 -18.5 -7.5t-7.5 -18.5v-133q0 -10 7.5 -17.5t18.5 -7.5h133q10 0 17.5 7.5t7.5 17.5v133q0 11 -7.5 18.5t-17.5 7.5zM405 502h-82v82h82v-82zM726 224h-227q-10 0 -17.5 -7.5t-7.5 -18.5t7.5 -18.5t17.5 -7.5h227q10 0 17.5 7.5t7.5 18.5t-7.5 18.5t-17.5 7.5z
M726 104h-227q-10 0 -17.5 -7.5t-7.5 -18t7.5 -18t17.5 -7.5h227q10 0 17.5 7.5t7.5 18t-7.5 18t-17.5 7.5z" />
    <glyph glyph-name="xjifyunsuanchenghao2" unicode="&#xe636;" 
d="M631 384l240 241q25 24 25 59t-24.5 59.5t-59.5 24.5t-59 -25l-241 -240l-241 240q-24 25 -59 25t-59.5 -24.5t-24.5 -59.5t25 -59l240 -241l-240 -241q-25 -24 -25 -59t24.5 -59.5t59.5 -24.5t59 25l241 240l241 -240q24 -25 59 -25t59.5 24.5t24.5 59.5t-25 59z" />
    <glyph glyph-name="shenhe" unicode="&#xe623;" 
d="M876 31l-89 89q32 49 32 107q0 80 -56.5 136.5t-137 56.5t-137 -56.5t-56.5 -136.5t56.5 -137t136.5 -57q58 0 107 32l89 -89q9 -8 21 -8t20 8l14 14q8 9 8 20.5t-8 20.5zM730 177q-18 -37 -55 -55q-24 -11 -50 -11q-48 0 -82 34t-34 82t34 82t82 34t82.5 -34t34.5 -82
q0 -26 -12 -50zM373 191h-95q-12 0 -20.5 8.5t-8.5 20.5t8.5 21t20.5 9h93q4 41 20 78h-113q-12 0 -20.5 9t-8.5 21t8.5 20.5t20.5 8.5h149q45 55 111 79h-260q-12 0 -20.5 8.5t-8.5 21t8.5 21t20.5 8.5h454q12 0 21 -8.5t9 -21t-9 -21t-21 -8.5h-22q60 -22 103 -69.5
t58 -109.5v424q0 37 -26.5 63t-63.5 26h-552q-37 0 -63 -26t-26 -63v-638q0 -37 26 -63.5t63 -26.5h324q-71 21 -120.5 77.5t-59.5 130.5zM278 663h454q12 0 21 -9t9 -21t-9 -20.5t-21 -8.5h-454q-12 0 -20.5 8.5t-8.5 20.5t8.5 21t20.5 9z" />
    <glyph glyph-name="xiangxi" unicode="&#xe65a;" 
d="M915 54zM561 508h-295v-50h295v50v0zM389 409h-123v-25h123v25v0zM266 161v-50h295v50h-295v0zM291 831v-124h49v74h491v-645h-49v-50h98v745h-589v0zM144 -63h466v29l22 -23l98 100l1 18h2v621h-589v-745v0zM610 -23v84h77l-77 -84v0zM193 632h491v-521h-123v-50h1
l1 -74h-370v645v0zM389 235h-123v-25h123v25v0zM561 334h-295v-49h295v49v0zM561 334z" />
    <glyph glyph-name="1xiangxi" unicode="&#xe698;" 
d="M1570 784zM921 649h-335q-15 0 -26 11t-11 26.5t11 26.5t26 11h335q15 0 26 -11t11 -26.5t-11 -26.5t-26 -11v0v0zM921 463h-335q-15 0 -26 11t-11 26.5t11 26.5t26 11h335q15 0 26 -11t11 -26.5t-11 -26.5t-26 -11v0v0zM921 230h-335q-15 0 -26 11t-11 26.5t11 26.5
t26 11h335q15 0 26 -11t11 -26.5t-11 -26.5t-26 -11v0v0zM921 44h-335q-15 0 -26 11t-11 26.5t11 26.5t26 11h335q15 0 26 -11t11 -26.5t-11 -26.5t-26 -11v0v0zM103 761q-15 0 -26 -11t-11 -26v-223q0 -16 11 -27t26 -11h223q15 0 26 11t11 27v223q0 15 -11 26t-26 11h-223
v0v0zM103 305q-15 0 -26 -11t-11 -27v-223q0 -15 11 -26t26 -11h223q15 0 26 11t11 26v223q0 16 -11 27t-26 11h-223v0v0zM103 240z" />
    <glyph glyph-name="zijinliushui" unicode="&#xe624;" 
d="M877 42h-733q-33 0 -56 23t-23 56v297h892v-297q0 -33 -23.5 -56t-56.5 -23zM877 210q0 10 -10 10h-218q-9 0 -9 -10v-40q0 -10 9 -10h218q10 0 10 10v40zM65 616q0 33 23 56t56 23h733q33 0 56.5 -23t23.5 -56v-79h-892v79z" />
    <glyph glyph-name="shebei" unicode="&#xe642;" horiz-adv-x="1039" 
d="M201 182q-19 0 -33 -14t-14 -33t14 -32.5t33 -13.5t32.5 13.5t14 32.5t-13.5 33t-33 14v0zM883 -67h-713q-6 0 -11 -4.5t-5 -10.5v-16q0 -6 5 -10.5t11 -4.5h713q7 0 11.5 4.5t4.5 10.5v16q0 6 -4.5 10.5t-11.5 4.5v0zM930 802h-838q-6 0 -10.5 -4.5t-4.5 -11.5v-496
q0 -6 4.5 -10.5t10.5 -4.5h838q6 0 10.5 4.5t4.5 10.5v496q0 7 -4.5 11.5t-10.5 4.5v0zM992 879h-962q-12 0 -21.5 -9t-9.5 -22v-868q0 -13 9.5 -22t21.5 -9h962q13 0 22 9t9 22v868q0 13 -9 22t-22 9v0zM976 11q0 -6 -4.5 -11t-10.5 -5h-900q-6 0 -10.5 5t-4.5 11v806
q0 7 4.5 11.5t10.5 4.5h900q6 0 10.5 -4.5t4.5 -11.5v-806v0zM930 244h-838q-6 0 -10.5 -5t-4.5 -11v-186q0 -6 4.5 -10.5t10.5 -4.5h838q6 0 10.5 4.5t4.5 10.5v186q0 6 -4.5 11t-10.5 5v0zM201 50q-35 0 -60 25t-25 60t25 60t60 25t60 -25t25 -60t-25 -60t-60 -25v0z
M899 112q0 -8 -8 -8h-543q-7 0 -7 8v15q0 8 7 8h543q8 0 8 -8v-15v0zM899 112z" />
    <glyph glyph-name="liushui" unicode="&#xe625;" 
d="M9 681.5q0 -47.5 33.5 -81t80.5 -33.5t80.5 33.5t33.5 81t-33.5 81t-80.5 33.5t-80.5 -33.5t-33.5 -81zM634 681.5q0 -37.5 27 -64.5t64.5 -27t64.5 27t27 64.5t-27 64.5t-64.5 27t-64.5 -27t-27 -64.5zM199 704h237v-38h-237v38zM476 797v-236h-38v236h38zM443 864
l168 -175l-168 -168v343zM93 376.5q0 -47.5 33.5 -81t80.5 -33.5t80.5 33.5t33.5 81t-33.5 81t-80.5 33.5t-80.5 -33.5t-33.5 -81zM748 376q0 -38 27 -64.5t65 -26.5t64.5 26.5t26.5 64.5t-26.5 65t-64.5 27t-65 -27t-27 -65zM321 407h237v-38h-237v38zM558 559l168 -167
l-168 -168v335zM207 79q0 -47 33.5 -80.5t81 -33.5t81 33.5t33.5 80.5t-33.5 80.5t-81 33.5t-81 -33.5t-33.5 -80.5zM840 64q0 -38 27 -65t64.5 -27t64.5 27t27 65t-27 64.5t-64.5 26.5t-64.5 -26.5t-27 -64.5zM405 87h237v-39h-237v39zM642 247l175 -168l-175 -175v343z
" />
    <glyph glyph-name="shangchuan1" unicode="&#xe626;" horiz-adv-x="1040" 
d="M375 552q-3 3 -7.5 7t-19.5 12t-31 11t-40 -0.5t-48 -17.5q-21 -14 -35 -33t-19.5 -36.5t-7 -33t-1 -25l0.5 -9.5q-7 -1 -18 -4.5t-40 -19t-51 -36.5t-40 -61t-18 -90q3 -127 118 -167q35 -12 64 -12h266v189h-128l192 190l192 -190h-128v-189h259q3 0 9 0.5t23.5 3.5
t34 9t37.5 18.5t37 29.5t29 45t18 62q3 52 -13 94t-37.5 64t-50.5 38t-40.5 19.5t-18.5 5.5v0q1 3 1 9t-1 25t-3.5 37.5t-9 44.5t-16.5 48.5t-27 46.5t-39 42t-54 32t-71 19q-58 6 -106.5 -10.5t-77 -43t-49 -56t-28 -47.5t-7.5 -21z" />
    <glyph glyph-name="bumen" unicode="&#xe673;" 
d="M316 -8h-127q-6 0 -10 4.5t-4 9.5v757q0 5 4 9.5t10 4.5h644q6 0 10 -4.5t4 -9.5v-408l56 -24v432q0 29 -20.5 49.5t-49.5 20.5h-644q-29 0 -49.5 -20.5t-20.5 -49.5v-757q0 -28 20.5 -49t49.5 -21h127v56v0zM771 430q0 55 -39 93.5t-93.5 38.5t-93.5 -38.5t-39 -93.5
t39 -93.5t93.5 -38.5t93.5 38.5t39 93.5v0zM815 253v0h-25l-137 -278l52 256l-67 67l-66 -67l52 -256l-138 278h-24v0q-19 0 -33 -3.5t-23 -9t-15.5 -16.5t-10 -19.5t-5 -25.5t-1.5 -27v-31v-185h529v185v31t-2 27t-5 25.5t-9.5 19.5t-15.5 16.5t-23.5 9t-32.5 3.5v0z
M263 686h492v-52h-492v52v0zM263 554h170v-56h-170v56v0zM263 412h190v-52h-190v52v0zM263 412z" />
    <glyph glyph-name="caiwushenhe" unicode="&#xe627;" 
d="M762 284h-54v51q0 5 -4.5 8t-13.5 3t-13.5 -3t-4.5 -8v-63v-3.5v-2.5q0 -9 3.5 -15t9.5 -6h77q6 0 10 6t4 14.5t-4 13.5t-10 5zM512 863q-97 0 -186 -38t-153 -102t-102 -153t-38 -186t38 -186t102 -153t153 -102t186 -38t186 38t153 102t102 153t38 186t-38 186
t-102 153t-153 102t-186 38zM278 537q0 14 9.5 24t22.5 10h437q13 0 22.5 -10t9.5 -24v-39q0 -14 -9.5 -23.5t-22.5 -9.5h-437q-13 0 -22.5 9.5t-9.5 23.5v39zM239 175q-14 0 -23 9.5t-9 23.5v43q0 13 9 22.5t23 9.5h289q-1 -4 -1 -8v-8q0 -26 7.5 -49t20.5 -43h-316z
M536 320h-297q-14 0 -23 9.5t-9 23.5v43q0 13 9 23t23 10h421q4 0 9 -2q-23 -3 -44 -11.5t-38 -22.5t-30 -33t-21 -40zM807 217q-10 -23 -27 -40.5t-40 -27t-49 -9.5t-48.5 9.5t-40 27t-27.5 40.5t-10 49t10 49t27.5 40t40 27t48.5 10t49 -10t40 -27t27 -40t10 -49t-10 -49z
" />
    <glyph glyph-name="shangchuan2" unicode="&#xe628;" 
d="M512 475v0v0h1h-1zM495 468l-189 -189q-7 -6 -7 -16t7 -17t17 -7t17 7l148 148v-319q0 -10 7 -17t17 -7t17 7t7 17v319l148 -148q7 -7 17 -7t17 7t7 17t-7 16l-189 189l-2 1l-1 1q0 1 -1 1.5t-1 1.5h-2q-2 1 -4 1l-2 1h-2h-1h-3h-2l-2 -1q-2 0 -4 -1h-1l-1.5 -1.5
t-1.5 -0.5l-1 -1zM820 130q53 0 88 36q37 38 37 89q0 46 -29 82q-29 35 -75 42q-14 3 -23.5 14t-9.5 25v1q0 112 -79 191q-80 80 -191 80q-82 0 -150 -45q-68 -46 -100 -120q-10 -23 -35 -24q-73 -4 -124 -58q-50 -52 -50 -127q0 -78 54 -132h1q54 -54 131 -54h16h1h101h12
q16 0 28 -12t12 -28t-12 -27.5t-28 -11.5h-12h-101h-1h-16q-111 0 -188 78q-77 77 -77 187q0 105 72 182q63 65 154 80q41 81 119 132q87 58 193 58q70 0 134 -27t113 -75q90 -91 101 -217q52 -17 90 -62q48 -57 48 -132q0 -84 -60 -145v0q-51 -50 -124 -59h-9h-10h-2h-175
h-1q-17 0 -28.5 11.5t-11.5 27.5t11.5 28t28.5 12h1h176z" />
    <glyph glyph-name="listmore" unicode="&#xe6c6;" 
d="M109 738q-40 0 -68 -28t-28 -68t28 -68.5t68 -28.5t68.5 28.5t28.5 68.5t-28.5 68t-68.5 28zM109 481q-40 0 -68 -28.5t-28 -68.5t28 -68.5t68 -28.5t68.5 28.5t28.5 68.5t-28.5 68.5t-68.5 28.5zM109 223q-40 0 -68 -28.5t-28 -68.5t28 -68t68 -28t68.5 28t28.5 68
t-28.5 68.5t-68.5 28.5zM335 577h612q26 0 45 19t19 45.5t-19 45.5t-45 19h-612q-27 0 -46 -19t-19 -45.5t19 -45.5t46 -19zM947 448h-612q-27 0 -46 -18.5t-19 -45.5t19 -45.5t46 -18.5h612q26 0 45 18.5t19 45.5t-19 45.5t-45 18.5zM947 191h-612q-27 0 -46 -19t-19 -45.5
t19 -45.5t46 -19h612q26 0 45 19t19 45.5t-19 45.5t-45 19z" />
    <glyph glyph-name="26chehui" unicode="&#xe674;" 
d="M969 182h-21l-1 409q0 29 -16 49.5t-38 20.5h-329l-2 71l408 1q22 0 38 -20t16 -49l-1 -413q0 -29 -15.5 -49t-38.5 -20zM815 584q24 0 40 -17t16 -41l-5 -263q-1 -23 -18.5 -39.5t-40.5 -16.5l-334 -1l-5 -275l-468 528l486 437l-6 -313zM339 618q7 6 6.5 16.5t-8 19
t-17.5 10t-17 -5.5l-169 -151q-7 -7 -6.5 -17t8 -18.5t17.5 -10t17 4.5z" />
    <glyph glyph-name="denglu-copy" unicode="&#xe629;" 
d="M210 849h562q47 0 80 -33t33 -80v-112h-56v112q0 24 -16.5 40.5t-40.5 16.5h-562q-24 0 -40.5 -16.5t-16.5 -40.5v-619q0 -23 16.5 -39.5t40.5 -16.5h562q24 0 40.5 16.5t16.5 39.5v113h56v-113q0 -46 -33 -79t-80 -33h-562q-47 0 -80 33t-33 79v619q0 47 33 80t80 33v0z
M774 251q8 -8 8 -19.5t-8.5 -20t-20 -8.5t-19.5 9l-194 194q-9 8 -8 21q-1 13 8 21l194 194q8 8 19.5 8t20 -8t8.5 -19.5t-8 -20.5l-148 -147h276q11 0 19.5 -8t8.5 -20t-8.5 -20t-19.5 -8h-276zM774 251zM360 422q44 0 75.5 30.5t31.5 74.5t-31.5 75t-76 31t-76 -31
t-31.5 -75t31.5 -74.5t76.5 -30.5v0zM362 412q-66 0 -127 -45t-61 -103v-18h377v18q0 58 -61.5 103t-127.5 45v0zM362 412z" />
    <glyph glyph-name="shebei1" unicode="&#xe647;" 
d="M241 197q-17 0 -29 -11.5t-12 -28.5t12 -29t29 -12t28.5 12t11.5 29t-11.5 28.5t-28.5 11.5zM837 -19h-623q-6 0 -10 -4t-4 -10v-13q0 -6 4 -10t10 -4h623q5 0 9 4t4 10v13q0 6 -4 10t-9 4zM877 739h-731q-6 0 -10 -4t-4 -9v-434q0 -5 4 -9t10 -4h731q6 0 10 4t4 9v434
q0 5 -4 9t-10 4zM931 807h-839q-11 0 -19 -8t-8 -19v-759q0 -11 8 -19t19 -8h839q12 0 20 8t8 19v759q0 11 -8 19t-20 8zM918 48q0 -5 -4 -9t-10 -4h-785q-6 0 -10 4t-4 9v705q0 5 4 9t10 4h785q6 0 10 -4t4 -9v-705zM877 252h-731q-6 0 -10 -4t-4 -10v-162q0 -6 4 -10
t10 -4h731q6 0 10 4t4 10v162q0 6 -4 10t-10 4zM241 89q-28 0 -48 20t-20 48t20 48t48 20t47.5 -20t19.5 -48t-19.5 -48t-47.5 -20zM850 137q0 -7 -7 -7h-474q-6 0 -6 7v13q0 7 6 7h474q7 0 7 -7v-13z" />
    <glyph glyph-name="xin-copy" unicode="&#xe62a;" 
d="M714 788q-58 0 -111 -24.5t-90 -67.5q-38 43 -91 67.5t-111 24.5q-104 0 -175 -70t-71 -172q0 -27 6 -54.5t14.5 -51t27 -52.5t33 -50.5t45 -54t50.5 -53t60.5 -58.5t64 -59.5t72.5 -65.5q7 -5 10 -8l65 -57l65 57q2 3 9 8q49 44 72.5 65.5t64.5 59.5t60.5 58.5t50 53
t45 54t33.5 50.5t27 52.5t14 51t6 54.5q0 102 -71 172t-175 70v0zM540 97l-9 -8l-18 -17l-19 17l-9 8q-70 63 -106 96t-82.5 79t-75.5 81q-87 105 -87 193q0 75 51 125t126 50q42 0 81.5 -18.5t67.5 -50.5l53 -61l52 61q28 32 67.5 50.5t81.5 18.5q76 0 126 -50
q51 -50 51 -125q0 -88 -87 -193q-29 -35 -75 -81t-82 -79t-107 -96v0zM540 97z" />
    <glyph glyph-name="shebei2" unicode="&#xe643;" 
d="M512 896q104 0 199 -40.5t163.5 -109t109 -163.5t40.5 -199t-40.5 -199t-109 -163.5t-163.5 -109t-199 -40.5t-199 40.5t-163.5 109t-109 163.5t-40.5 199t40.5 199t109 163.5t163.5 109t199 40.5zM696 633h-368q-38 0 -65 -27t-27 -65v-243q0 -38 27 -65t65 -27h116
q2 -1 8.5 -8t17.5 -9l-1 -40h-76q-18 0 -31 -12.5t-14 -30.5h328q-1 18 -14 30.5t-31 12.5h-76l-3 38q2 1 11.5 5.5t14.5 12.5l118 1q38 0 65 27t27 65v243q0 38 -27 65t-65 27zM300 558h424v-280h-424v280z" />
    <glyph glyph-name="bumen1" unicode="&#xe68b;" 
d="M862 -90h-188h-478q-43 0 -73.5 30t-30.5 74v748q0 44 30.5 74t73.5 30h416q43 0 73.5 -30t30.5 -74v-357q11 4 21 4h125q25 0 43.5 -18.5t18.5 -44.5v-374q0 -26 -18.5 -44t-43.5 -18zM654 742q0 25 -18.5 43.5t-44.5 18.5h-374q-26 0 -44.5 -18.5t-18.5 -43.5v-708
q0 -26 18.5 -44.5t44.5 -18.5h437v771zM862 326q0 8 -6.5 14t-14.5 6h-104q-9 0 -15 -6t-6 -14v-354h125q8 0 14.5 6t6.5 15v333zM258 700h84q8 0 14 -6t6 -15v-83q0 -8 -6 -14.5t-14 -6.5h-84q-8 0 -14 6.5t-6 14.5v83q0 9 5.5 15t14.5 6zM258 450h84q8 0 14 -6t6 -14v-84
q0 -8 -6 -14t-14 -6h-84q-8 0 -14 6t-6 14v84q0 8 6 14t14 6zM258 201h84q8 0 14 -6.5t6 -14.5v-83q0 -9 -6 -15t-14 -6h-84q-8 0 -14 6t-6 15v83q0 9 6 15t14 6zM466 700h84q8 0 14 -6t6 -15v-83q0 -8 -6 -14.5t-14 -6.5h-84q-8 0 -14 6.5t-6 14.5v83q0 9 6 15t14 6z
M466 450h84q8 0 14 -6t6 -14v-84q0 -8 -6 -14t-14 -6h-84q-8 0 -14 6t-6 14v84q0 8 6 14t14 6zM466 201h84q8 0 14 -6.5t6 -14.5v-83q0 -9 -6 -15t-14 -6h-84q-8 0 -14 6t-6 15v83q0 8 6 14.5t14 6.5z" />
    <glyph glyph-name="xxjt2" unicode="&#xe692;" horiz-adv-x="1878" 
d="M912 115q-28 0 -48 21l-400 400q-21 20 -21 48t20.5 48t48.5 20t48 -20l352 -351l351 351q21 20 49 20t48 -20t20 -48t-20 -48l-400 -400q-20 -21 -48 -21z" />
    <glyph glyph-name="cehuixiaohepiliangshanchu" unicode="&#xe65c;" 
d="M889 574v0l-244 248q-10 10 -24 10h-400q-38 0 -64 -27t-26 -65v-710q0 -38 26 -64v0v0q28 -28 64 -28h588q36 0 63 27l1 1q26 27 26 64v519q0 14 -10 25v0zM641 729v0l156 -159h-119q-15 0 -26 10l-1 2q-10 11 -10 25v122v0zM832 30v0q0 -10 -7 -16v0q-7 -7 -16 -7h-588
q-10 0 -16 7v0q-7 7 -7 16v710q0 9 7 17q7 6 16 6h380v-156q0 -32 21 -54l1 -1q23 -23 55 -23h154v-499v0zM424 698l-51 -51l-51 52q-9 8 -18 0l-43 -44q-9 -8 0 -17l51 -52l-51 -51q-8 -8 0 -17l44 -43q8 -9 17 0l51 51l51 -51q8 -9 17 0l43 44q9 8 0 17l-50 50l51 51
q9 9 0 18l-44 43q-8 9 -17 0zM763 288q0 -15 -10.5 -25.5t-25.5 -10.5h-435q-15 0 -25.5 10.5t-10.5 25.5v0q0 15 10.5 25.5t25.5 10.5h435q15 0 25.5 -10.5t10.5 -25.5v0zM763 158q0 -15 -10.5 -25.5t-25.5 -10.5h-435q-15 0 -25.5 10.5t-10.5 25.5v0q0 15 10.5 25.5
t25.5 10.5h435q15 0 25.5 -10.5t10.5 -25.5v0z" />
    <glyph glyph-name="zengjia" unicode="&#xe62b;" 
d="M510 -64q-91 0 -174 35.5t-143 95.5t-95.5 143t-35.5 174t35.5 174t95.5 143t143 95.5t174 35.5t174 -35.5t143 -95.5t95.5 -143t35.5 -174t-35.5 -174t-95.5 -143t-143 -95.5t-174 -35.5zM732 403q0 15 -10 25t-24 10h-138v138q0 14 -10 24t-25 10h-34q-15 0 -25 -10
t-10 -24v-138h-138q-14 0 -24 -10t-10 -25v-34q0 -14 10 -24.5t24 -10.5h138v-137q0 -15 10 -25t25 -10h34q15 0 25 10t10 25v137h138q14 0 24 10.5t10 24.5v34z" />
    <glyph glyph-name="xiaoxi" unicode="&#xe62c;" 
d="M897 202q-3 2 -8.5 5t-21.5 15.5t-30 28.5t-30.5 44t-27.5 61.5t-17 82t-2 103.5q0 4 -0.5 10.5t-5 25.5t-11 37t-21 41.5t-33 42t-48 34.5t-66.5 24v3q0 28 -20 48t-48.5 20t-48.5 -20t-20 -48v-2q-10 -3 -23 -7t-41 -20t-50 -37.5t-41 -62t-22 -89.5q1 -5 1 -15
t-1.5 -39t-5.5 -57t-14 -64.5t-25 -67t-40.5 -59t-57.5 -44.5l-3 -3t-6 -9t-5.5 -14t0.5 -16.5t8 -17.5q2 -4 6 -9.5t23.5 -19.5t47.5 -25t83 -20t125 -9q1 -46 34 -78t79.5 -32t79.5 32t34 78h22q5 1 13.5 1t33.5 2t48.5 5.5t53 11t52.5 17t42 24.5t25 34l1 2t1.5 5t1 7.5
t-0.5 9.5t-3 10t-6 10.5t-11 9.5z" />
    <glyph glyph-name="tianjiaadd138" unicode="&#xe6d4;" 
d="M808 -128v108h108v108h-108v107h-107v-107h-108v-108h108v-108h107zM916 885q0 4 -3 7.5t-8 3.5h-786q-5 0 -8 -3.5t-3 -7.5v-1002q0 -4 3 -7.5t8 -3.5h493q-73 64 -73 162h-323v54h330q16 63 66 107h-396v54h592v-7q64 -16 108 -66v709zM808 357h-592v54h592v-54z
M808 519h-592v54h592v-54zM808 680h-592v54h592v-54z" />
    <glyph glyph-name="safe" unicode="&#xe663;" 
d="M512 896l432 -185v-281q0 -97 -32.5 -188t-89.5 -165q-59 -76 -138 -129.5t-172 -75.5q-93 22 -172 75.5t-138 129.5q-57 74 -89.5 165t-32.5 188v281zM512 385v410l-337 -146v-264h337v-415q68 19 124.5 59.5t99.5 95.5q45 55 74 121t39 139h-337z" />
    <glyph glyph-name="suyaniconchanpinleibufenzuodaohangbufen84" unicode="&#xe72d;" 
d="M870 838q-134 58 -358 58t-358 -58q-154 -67 -154 -153v-595q0 -45 39.5 -85.5t114.5 -68.5q128 -64 358 -64q224 0 358 58q72 28 113 69t41 84v602q0 86 -154 153v0zM813 576q-117 -45 -301 -45t-301 45q-141 38 -141 109q0 28 36.5 56t104.5 53q125 38 301 38
q155 0 301 -45q68 -24 104.5 -52t36.5 -57q0 -30 -35.5 -56.5t-105.5 -45.5v0zM819 390q-145 -44 -307 -44q-150 0 -307 44q-68 25 -104.5 53t-36.5 56v71q21 -9 55.5 -26t63.5 -28t60 -17q139 -32 269 -32t269 32q31 6 60 17t63.5 28t55.5 26v-77q0 -24 -37 -51.5
t-104 -51.5v0zM819 186q-145 -45 -307 -45q-150 0 -307 45q-68 19 -104.5 47t-36.5 61v96q9 -4 30 -14.5l30 -15t26.5 -13t29.5 -13t29 -10.5t34 -10q139 -32 269 -32t269 32q20 5 37.5 11t39 15.5t30 13.5t38 19t34.5 17v-96q0 -33 -36.5 -61t-104.5 -47v0zM512 -64
q-150 0 -307 45q-67 19 -104 46t-37 56v96q9 -4 30 -15t30 -15t26.5 -12.5t29.5 -13t29 -10.5t34 -11q128 -32 263 -32q130 0 268 32q19 5 37.5 11t30 10.5t31 13t27 12t31 15.5t29.5 15v-96q0 -28 -36.5 -56t-104.5 -53q-125 -38 -307 -38v0zM512 -64z" />
    <glyph glyph-name="jian" unicode="&#xe62d;" 
d="M808 767h-592q-36 0 -61.5 -25.5t-25.5 -61.5v-271q0 -36 25.5 -61.5t61.5 -25.5h39v64h-39q-9 0 -16 6.5t-7 16.5v271q0 9 7 16t16 7h592q9 0 16 -7t7 -16v-271q0 -10 -7 -16.5t-16 -6.5h-43v-64h43q36 0 61.5 25.5t25.5 61.5v271q0 36 -25.5 61.5t-61.5 25.5zM769 512
v66h-514v-66h66v-507h382v507h66zM640 68h-256v442h256v-442zM448 449h128v-65h-128v65zM448 321h128v-64h-128v64zM448 193h128v-64h-128v64z" />
    <glyph glyph-name="quanxianguanli" unicode="&#xe6c7;" horiz-adv-x="1025" 
d="M509 570q-25 0 -42.5 -17.5t-17.5 -42.5t17.5 -42.5t42 -17.5t42 17.5t17.5 42.5t-17.5 42.5t-41.5 17.5v0zM509 570zM759 758q-140 0 -250 82q-111 -82 -250 -82q-48 0 -100 18v-393q0 -55 38 -129q39 -77 110 -156q64 -71 136 -126q27 -20 51 -34q11 -7 21 0
q24 15 51 36q75 56 140 127q74 81 114 156q38 73 38 126v393q-51 -18 -99 -18v0zM546 351v-171q0 -16 -11 -27t-26 -11v0q-16 0 -27 11t-11 27v171q-54 13 -90 57.5t-36 101.5q0 68 48 115.5t115.5 47.5t115.5 -47.5t48 -115.5q0 -57 -35.5 -101.5t-90.5 -57.5v0zM546 351z
" />
    <glyph glyph-name="zengjia1" unicode="&#xe675;" 
d="M934 -128h-844q-37 0 -63.5 26.5t-26.5 63.5v844q0 37 26.5 63.5t63.5 26.5h844q37 0 63.5 -26.5t26.5 -63.5v-844q0 -37 -26.5 -63.5t-63.5 -26.5zM723 429h-157v157q0 21 -14.5 35.5t-35 14.5t-35 -14.5t-14.5 -35.5v-157h-157q-21 0 -35.5 -14.5t-14.5 -35t14.5 -35
t35.5 -14.5h157v-157q0 -21 14.5 -35t35 -14t35 14t14.5 35v157h157q21 0 35 14.5t14 35t-14 35t-35 14.5z" />
    <glyph glyph-name="shenhe1" unicode="&#xe6a0;" 
d="M692 273q-1 5 -3 6q-2 3 -4 3l-2 -1h-2q0 -1 -1 -2q-1 0 -1 -1q0 -2 1 -3v-2q1 0 1 -0.5t-1 -0.5h-17q-2 0 -3.5 -1.5t-1.5 -3.5h-2q-1 0 -1 1v7q0 3 -1 4q-2 2 -4 2t-3.5 -1.5t-1.5 -4.5v-7q0 -1 -2 -1h-5q-2 0 -4 -2q-1 -1 -1 -3.5t1.5 -3.5t3.5 -1h4q2 0 2 -2
q0 -1 -3 -10q-2 -4 -3 -8q-1 -2 -4 -9q-2 -2 -2 -4t2 -3t3.5 -1t3 1t3.5 6q0 1 0.5 1t0.5 -1v-23q0 -3 1.5 -4.5t3.5 -1.5t4 2q1 1 1 4v33q0 1 0.5 1t0.5 -1q2 -3 3 -4q2 -2 3.5 -2t3 1.5t1.5 2.5q0 2 -1 4q1 -1 3 -1h5h4q2 0 2 -0.5t-5 -3.5q-4 -3 -10 -7q-5 -2 -5 -5
q0 -2 1.5 -3.5t3.5 -1.5t4 1q4 2 8 6q5 3 9 7t7.5 8.5t6.5 10.5q1 2 1 4q0 1 -0.5 2t-1.5 1.5l-1 0.5q-1 1 -2 1q-3 0 -5 -5l-1 -1q0 -2 -1 -2q0 -2 -1 -2l-1 -1v0h-8q-2 -1 -2 0l2 4l6 9q0 1 1 1h24q3 0 4 1.5t1 3.5t-1 3.5t-4 1.5h-16q-1 1 -2 1zM673 262q-2 -3 -3 -4
q0 -1 -1 -2t-1 -2q-3 -4 -4 -6v-2q-1 -1 -1 -2q-1 2 -3 4q-1 1 -2.5 3t-2.5 3v2t2 1h3q3 0 4 1q2 2 1 5h7q1 0 1 -1v0zM626.5 273q-1.5 1 -3.5 1h-4h-23q-1 0 -1.5 0.5l-0.5 0.5q-1 4 -2 5q-2 1 -4 1q-3 0 -5 -1t-2 -3v-1l1 -1v-1h-1h-24q-2 0 -3.5 -0.5t-3.5 -1.5
q-1 -1 -1 -2.5v-4.5v-6q0 -3 1.5 -4.5t3.5 -1.5h1v0.5v0.5q-1 -2 -1 -5v-31q0 -5 2 -6.5t7 -1.5h19q1 0 1 -2v-5q0 -2 1.5 -3.5t3.5 -1.5t4 1.5t1 3.5v5q0 2 1 2h19q4 0 6 1.5t2 6.5v31q0 3 -1 5h0.5h0.5q4 0 6 3q1 3 1 10v3q0 2 -1.5 3zM583 220q0 -1 -1 -1h-15q-2 0 -2 2
v7q0 1 1 1h16q1 0 1 -1v-8zM583 239q0 -1 -1 -1h-16q-1 0 -1 1v6q0 3 2 3h15q1 0 1 -2v-7zM583 260v-2q0 -1 -1 -1h-19q-3 0 -4 -1v3v3q0 2 1 2.5t2 0.5h25q-4 -1 -4 -5zM611 221q0 -1 -0.5 -1.5l-0.5 -0.5h-15q-1 0 -1 1v8q0 1 1 1h15q1 0 1 -1v-7zM611 239q0 -1 -1 -1h-15
q-1 0 -1 1v7q0 2 1 2h15q1 0 1 -3v-6zM617 259q-1 -1 -1 -1.5v-0.5h-3h-18q-1 0 -1 1v2q0 4 -4 5h25q1 0 2 -1q1 0 1 -1t-1 -4zM712 211l-2 2q-1 2 -2 2.5t-7 7.5v0.5v0.5q1 1 2 2.5t2 1.5q2 3 3 5q3 5 4 7q1 3 1 4q0 3 -1.5 4t-3.5 1t-5 -4q-6 -12 -16.5 -21t-22.5 -14
q-5 -2 -5 -5v-2q1 -1 1 -2q1 -1 2 -1.5t3 -0.5q3 0 11 5q3 2 9 5q5 4 8 6q0 1 0.5 1t1.5 -1l0.5 -0.5t0.5 -1t0.5 -1l1 -1l1.5 -1.5t1 -2q2 -2 4 -5l1 -1t1 -2q1 0 2 -0.5t2 0l3 1.5q1 1 1.5 2t0.5 2t-1 2q0 2 -2 4zM512 800q-172 0 -294 -122t-122 -294t122 -294t294 -122
t294 122t122 294t-122 294t-294 122zM636 141q-42 0 -71.5 30t-29.5 72t29.5 71.5t71.5 29.5t72 -29.5t30 -71.5t-30 -72t-72 -30zM367 378q-5 0 -8.5 3.5t-3.5 8t3.5 8t8.5 3.5h227q5 0 8.5 -3.5t3.5 -8t-3.5 -8t-8.5 -3.5h-227zM485 336q0 -5 -3.5 -8t-7.5 -3h-107
q-5 0 -8.5 3t-3.5 8t3.5 8.5t8.5 3.5h107q4 0 7.5 -3.5t3.5 -8.5zM367 454h158q5 0 8.5 -3.5t3.5 -8t-3.5 -8t-8.5 -3.5h-158q-5 0 -8.5 3.5t-3.5 8t3.5 8t8.5 3.5zM355 496q0 5 3.5 8t8.5 3h275q5 0 8.5 -3t3.5 -8t-3.5 -8.5t-8.5 -3.5h-275q-5 0 -8.5 3.5t-3.5 8.5z
M746 357v0q0 -7 -5.5 -12.5t-13 -5.5t-13 5t-6.5 13v0v0v1v1v238h-393v-426h204v0q8 -1 13 -6.5t5 -12.5q0 -8 -5.5 -13.5t-13.5 -5.5h-1h-193q-19 0 -33 14t-14 33v407q0 19 14 33t33 14h376q18 0 32 -14t14 -33v-230z" />
    <glyph glyph-name="unif012" unicode="&#xe69c;" 
d="M990 578l-344 -344l-250 -94l94 250l344 346q12 14 28 20t34 6q16 0 33 -6t29 -20l32 -32q12 -12 19 -29t7 -33q0 -18 -7 -34t-19 -30v0v0zM472 216l150 56l10 8l-94 96l-10 -10zM568 406l94 -94l234 236l-94 94zM958 674l-30 32q-8 6 -16 9t-16 3t-16 -3t-16 -9l-30 -32
l92 -94l32 32q6 6 10 14t4 16q0 10 -4 18t-10 14v0v0zM154 116v46h218l-18 -46h-200zM404 250h-250v44h268zM154 562h222v-44h-222v44zM376 384h-222v44h222v-44zM640 162v-46h-214l118 46h96zM530 814v-162q0 -10 3 -18t9 -14t14 -10t18 -4h68l-44 -44h-24q-18 0 -34 7
t-28 19t-19 28t-7 36v200h-398q-8 0 -16 -4t-14 -10t-10 -14t-4 -18v-844q0 -10 4 -18t10 -14t14 -10t16 -4h618q10 0 18 4t14 10t9 14t3 18v312l44 46v-358q0 -20 -7 -36t-19 -28t-28 -19t-34 -7h-618q-18 0 -34 7t-28 19t-19 28t-7 36v844q0 20 7 36t19 28t28 19t34 7h428
l198 -216l-30 -32z" />
    <glyph glyph-name="riqi" unicode="&#xe62e;" 
d="M256 320h128v-64h-128v64zM448 320h128v-64h-128v64zM640 320h128v-64h-128v64zM256 192h128v-64h-128v64zM448 192h128v-64h-128v64zM640 192h128v-64h-128v64zM320 704v64h-64v-64v-64h64v64zM768 704v64h-64v-64v-64h64v64zM832 704v-40v-24v-64h-192v64v37v27h-256
v-27v-37v-64h-192v64v11v53q-53 0 -90.5 -37.5t-37.5 -90.5v-512q0 -53 37.5 -90.5t90.5 -37.5h640q53 0 90.5 37.5t37.5 90.5v512q0 53 -37.5 90.5t-90.5 37.5zM896 64q0 -26 -19 -45t-45 -19h-640q-26 0 -45 19t-19 45v384h768v-384z" />
    <glyph glyph-name="shenhe2" unicode="&#xe64b;" horiz-adv-x="1025" 
d="M705 728h-545q-10 0 -17 -6.5t-7 -15t7 -15t17 -6.5h545q10 0 17 6.5t7 15t-7 15t-17 6.5zM729 553.5q0 8.5 -7 15t-17 6.5h-545q-10 0 -17 -6.5t-7 -15t7 -15t17 -6.5h545q10 0 17 6.5t7 15zM160 422q-10 0 -17 -6t-7 -15t7 -15.5t17 -6.5h350q10 0 17 6.5t7 15.5t-7 15
t-17 6h-350zM434 269h-274q-10 0 -17 -6t-7 -15t7 -15t17 -6h274q10 0 17 6t7 15t-7 15t-17 6zM968 52h-61l-119 149q37 11 60.5 40t23.5 66q0 46 -37 79t-89 33t-89 -33t-37 -79q0 -37 23.5 -66t60.5 -40l-119 -149h-61q-23 0 -39.5 -15t-16.5 -35v-80q0 -21 16.5 -35.5
t39.5 -14.5h444q23 0 39.5 14.5t16.5 35.5v80q0 20 -16.5 35t-39.5 15zM668 307q0 29 23 49.5t55.5 20.5t55.5 -20.5t23 -49.5t-23 -49.5t-55 -20.5h-2q-32 0 -54.5 20.5t-22.5 49.5zM739 170l14 1l95 -119h-204zM976 -78q0 -7 -8 -7h-444q-8 0 -8 7v80q0 7 8 7h73h298v0h73
q8 0 8 -7v-80v0v0zM48 11v835q0 7 8 7h760q8 0 8 -7v-401q27 -12 48 -32v433q0 21 -16.5 35.5t-39.5 14.5h-760q-23 0 -39.5 -14.5t-16.5 -35.5v-835q0 -20 16.5 -35t39.5 -15h364v41l0.5 1l0.5 1h-365q-8 0 -8 7v0z" />
    <glyph glyph-name="shenhe21" unicode="&#xe676;" 
d="M832 672h-58v64h-136v-64h-263v64h-136v-64h-47q-27 0 -45.5 -18.5t-18.5 -45.5v-512q0 -27 18.5 -45.5t45.5 -18.5h640q27 0 45.5 18.5t18.5 45.5v512q0 27 -18.5 45.5t-45.5 18.5zM665 705h81v-140h-81v140zM464 429q3 -10 3 -22q0 -28 -16.5 -50.5t-44.5 -31.5
q-34 -11 -66.5 5.5t-43.5 51.5q-8 25 0 51t29 42q20 16 45 18q33 4 59.5 -14.5t34.5 -49.5zM267 705h82v-140h-82v140zM526 195q0 -11 -11 -18q-9 -5 -23 -7q-18 -4 -56 -4h-54v0h-57q-19 0 -37 2q-19 1 -32 7q-10 4 -14 11q-3 5 -3 11q-1 33 14 59q19 35 57 50q19 7 41 7
h64q43 0 75 -28q28 -25 35 -63q2 -12 1 -27zM774 178h-155v47h155v-47zM774 256h-155v48h155v-48zM774 331h-155v48h155v-48zM774 408h-155v47h155v-47z" />
    <glyph glyph-name="audit" unicode="&#xe62f;" 
d="M832 672h-58v64h-136v-64h-263v64h-136v-64h-47q-27 0 -45.5 -18.5t-18.5 -45.5v-512q0 -27 18.5 -45.5t45.5 -18.5h640q27 0 45.5 18.5t18.5 45.5v512q0 27 -18.5 45.5t-45.5 18.5zM665 705h81v-140h-81v140zM464 429q3 -10 3 -22q0 -28 -16.5 -50.5t-44.5 -31.5
q-34 -11 -66.5 5.5t-43.5 51.5q-8 25 0 51t29 42q20 16 45 18q33 4 59.5 -14.5t34.5 -49.5zM267 705h82v-140h-82v140zM526 195q0 -11 -11 -18q-9 -5 -23 -7q-18 -4 -56 -4h-54v0h-57q-19 0 -37 2q-19 1 -32 7q-10 4 -14 11q-3 5 -3 11q-1 33 14 59q19 35 57 50q19 7 41 7
h64q43 0 75 -28q28 -25 35 -63q2 -12 1 -27zM774 178h-155v47h155v-47zM774 256h-155v48h155v-48zM774 331h-155v48h155v-48zM774 408h-155v47h155v-47z" />
    <glyph glyph-name="tongguo" unicode="&#xe685;" horiz-adv-x="1063" 
d="M712 -78q-67 62 -89.5 97.5t-3.5 50.5q17 14 33 7t54 -45q48 -48 63 -58l14 -9l15 17q15 18 90 118q78 103 102.5 130.5t40.5 27.5q10 0 15 -3t9 -12q17 -32 0 -47q-8 -6 -43 -57.5t-81.5 -105t-77.5 -98.5q-24 -36 -37 -47.5t-32 -15.5q-10 -1 -22 7t-50 43zM72 -89
q-19 8 -35.5 29.5t-22.5 46.5q-3 13 -4 420v96q-1 250 3.5 295t32.5 62q7 4 11 7l28 19l411 1q322 1 380.5 -1.5t82.5 -17.5q11 -7 23 -34q8 -19 9.5 -52.5t0.5 -206.5q-1 -232 -6 -239q-6 -7 -21 -6t-26 10l-14 11v216q0 217 -5 230q-6 17 -62 20.5t-346 3.5
q-361 -1 -390 -4q-21 -2 -26 -5t-10 -17q-6 -18 -6 -393.5t4 -394.5q4 -18 16 -23q23 -9 208 -9h1h1h1h1h1h1h1h1h1h1h1v0h1h1h1h1l1 -1h1h1h1h1h1h1h1h1h1h1h1h1h1h1h1h1h1h1h1h1h1h1h2q227 0 238.5 -6.5t15 -20t-3.5 -26.5l-8 -13l-253 -1q-252 -1 -265 4zM299 166
q-16 32 2 48q6 6 42 7t178 1h210l8 -15q8 -16 6 -30q-2 -17 -39 -21t-201 -5h-198zM466 364q-156 2 -162 7q-9 8 -10.5 25t6.5 26q6 7 36.5 8.5t183.5 1.5h211l7 -12q8 -11 8 -27q0 -23 -43 -27t-237 -2zM299 590q-14 28 2 43q6 6 42.5 7t178.5 1h213l5 -13q6 -13 6 -26
q0 -19 -35 -23t-202 -4h-202z" />
    <glyph glyph-name="zidian" unicode="&#xe677;" 
d="M898 -42q-33 0 -56 18.5t-23 44.5t23 44t56 18q14 0 23.5 8t9.5 19v2v725q0 11 -10 19t-23 8h-644q-61 0 -104 -34.5t-43 -82.5v-725q0 -49 43 -82.5t104 -33.5h645q14 0 24 8t10 19t-10.5 18t-24.5 7v0zM288 810h576v-671h-576v671v0zM174 747q0 18 12.5 33.5t32.5 22.5
v-667q-22 -5 -45 -14v625v0zM773 -42h-519q-32 0 -55 18.5t-23 44.5t23 44t55 18h520q-24 -32 -24 -62q0 -33 23 -63v0zM773 -42z" />
    <glyph glyph-name="shouqi2" unicode="&#xe834;" 
d="M825 355l-333 -383l23 -19q13 -12 30.5 -12t29.5 12l351 402q12 12 12 29.5t-12 29.5l-351 402q-12 12 -29.5 12t-30.5 -12l-26 -25l336 -377q18 -21 17.5 -30t-17.5 -29zM439 355l-333 -383l23 -19q12 -12 29.5 -12t30.5 12l351 402q12 12 12 29.5t-12 29.5l-351 402
q-13 12 -30.5 12t-29.5 -12l-26 -25l336 -377q17 -21 17 -30t-17 -29z" />
    <glyph glyph-name="jiaosequanxian" unicode="&#xe664;" horiz-adv-x="1038" 
d="M848 573h-195q-8 0 -14 -6t-6 -14.5t6 -14.5t14 -6h195q9 0 14.5 6t5.5 14.5t-5.5 14.5t-14.5 6zM848 445h-195q-8 0 -14 -6t-6 -14t6 -14t14 -6h195q9 0 14.5 6t5.5 14t-5.5 14t-14.5 6zM993 192l-33 7q-3 11 -8 22l17 29q16 26 0 43l-19 18q-9 9 -22 9q-12 0 -22 -7
l-28 -18q-10 5 -21 9l-8 33q-2 11 -11 20t-20 9h-27q-12 0 -20 -8.5t-10 -20.5l-9 -33q-11 -4 -23 -9l-29 18q-9 7 -21 7q-14 0 -22 -9l-19 -18q-16 -17 0 -43l18 -31q-5 -10 -8 -20l-32 -7q-12 -2 -21 -11t-9 -21v-26q0 -12 9 -20t21 -11l33 -8q3 -9 7 -18l-18 -31
q-16 -26 0 -42l19 -19q8 -9 22 -9q12 0 21 7l30 19q11 -6 23 -10l8 -32q3 -12 11 -21t19 -9v0h27q12 0 21 9t11 21l7 32q10 4 21 9l28 -18q10 -7 22 -7q13 0 22 9l19 19q16 16 0 42l-18 29q5 10 9 20l33 8q12 3 20.5 11t8.5 20v27q0 11 -9 20t-20 11zM994 135q-3 -3 -8 -4
l-47 -11q-1 -1 -2 -3l-4 -11q-3 -10 -8 -19l-5 -11q-1 -2 0 -3l25 -42q2 -4 3 -8l-18 -18h-2q-3 0 -5 2l-2.5 1.5t-6 3.5t-8 5l-9 6t-8 5t-6 3.5l-2.5 1.5q-1 1 -2 1t-1 -1l-11 -5q-10 -6 -21 -9l-12 -4q-1 0 -2 -2l-11 -48q0 -5 -3 -6h-26q-2 2 -3 8l-12 46q0 1 -2 2l-12 4
q-11 3 -22 9l-11 6h-2h-2l-42 -27q-2 -2 -5 -2h-1h-1v0l-18 18q0 4 3 8l26 43q1 2 0 3l-5 11q-5 9 -8 18l-3 11q-1 2 -3 3l-47 11q-5 1 -7 4v25q1 3 6 4h1l46 11q2 0 3 2l4 12q2 9 8 19l5 11q1 2 0 3l-26 43q-3 5 -3 8l18 18h2q3 0 5 -1l42 -27q1 -1 2 -1t2 1l11 5
q11 6 22 10l11 3q2 1 3 3l11 46q1 5 4 8h25q3 -2 4 -6v-0.5v-0.5l11 -47q0 -2 2 -3l12 -4q10 -3 21 -8l11 -6h1h2l41 26l0.5 0.5l0.5 0.5q2 1 5 1h0.5h0.5v0l19 -18q-1 -4 -3 -8l-25 -41q-1 -2 0 -4l5 -10q6 -11 9 -21l3 -12q1 -2 3 -2l47 -11h1q4 -1 6 -3v-26zM455 336
q38 23 61 62.5t23 85.5q0 71 -50.5 121.5t-122 50.5t-122 -50.5t-50.5 -121.5q0 -46 23 -85.5t61 -62.5q-74 -27 -120.5 -92.5t-46.5 -147.5q0 -8 5.5 -14t14 -6t14.5 6t6 14q0 89 63 152.5t152 63.5q52 0 97 -23t76 -64q5 -7 13.5 -8t15 4t7.5 13.5t-4 14.5q-46 61 -116 87
zM234 484.5q0 54.5 39 93t93.5 38.5t93 -38.5t38.5 -93t-38.5 -93.5t-93 -39t-93.5 39t-39 93.5zM804 238q-37 0 -63 -26.5t-26 -63.5t26 -63t63 -26t63.5 26t26.5 63t-26.5 63.5t-63.5 26.5zM804.5 87q-25.5 0 -43.5 18t-18 43t18 43t43.5 18t43.5 -18t18 -43t-18 -43
t-43.5 -18zM535 1v0h-26h-330q-46 0 -79 33t-33 80v544q0 47 33 80t79 33h597q46 0 79 -33t33 -80v-169v-14v-19q0 -13 9 -22t22 -9h5q12 0 21 9t9 22v19v14v192q0 63 -45 107.5t-108 44.5h-647q-63 0 -108 -44.5t-45 -107.5v-590q0 -63 45 -107.5t108 -44.5h355h26v0
q13 0 22 9t9 22v0q0 13 -9 22t-22 9z" />
    <glyph glyph-name="shujutubiao17" unicode="&#xe64c;" 
d="M907 896h-790q-48 0 -82 -34t-34 -82v-792q0 -48 34 -82t82 -34h790q48 0 82 34t34 82v792q0 48 -34 82t-82 34zM938 -12q0 -13 -9 -22t-22 -9h-790q-13 0 -22 9t-9 22v792q0 13 9 22t22 9h790q12 0 21.5 -7.5t9.5 -12.5v-793v-10zM807.5 576.5q-66.5 66.5 -160.5 66.5
h-238v45q0 11 -6.5 14.5t-15.5 -2.5l-110 -70q-9 -6 -9 -14.5t10 -14.5l109 -67q9 -6 15.5 -2.5t6.5 14.5v46h238q73 0 124.5 -51.5t51.5 -124.5q0 -24 -7 -47q-2 -10 3 -19.5t15 -12.5q4 -1 7 -1q19 0 25 19q8 30 8 61q0 94 -66.5 160.5zM765 167l-109 67q-9 6 -15.5 2.5
t-6.5 -14.5v-46h-257q-73 0 -124.5 51.5t-51.5 124.5q0 52 28 95q6 9 4 19.5t-11 16t-19.5 3.5t-16.5 -11q-36 -56 -36 -123q0 -94 66.5 -160.5t160.5 -66.5h257v-45q0 -11 6.5 -14.5t15.5 2.5l110 70q9 6 9 14.5t-10 14.5zM500 364h-75v-76h-42v76h-74v41h74v75h42v-75h75
v-41v0zM715 364h-140v40h140v-40z" />
    <glyph glyph-name="chaxun3" unicode="&#xe64d;" horiz-adv-x="1045" 
d="M230 719h462v-58h-462v58zM228 603h462v-58h-462v58zM114 835h693v-462h58v462q0 24 -17 41t-41 17h-693q-24 0 -40.5 -17t-16.5 -41v-808q0 -24 16.5 -41t40.5 -17h405v58h-405v808zM229 372v-58h141q0 30 8 58h-149zM466 487h-238v-57h176q25 35 62 57zM903 22
l-133 131q49 57 49 132q0 84 -59 143t-143 59t-143 -59t-59 -143t59 -143t143 -59q60 0 110 32l135 -133q8 -9 20 -9t20.5 8.5t8.5 20.5t-8 20zM473 285q0 60 42 102t102 42t102 -42t42 -102t-42 -102t-102 -42t-102 42t-42 102z" />
    <glyph glyph-name="guanxiaobaotubiao16" unicode="&#xe678;" 
d="M640 567q0 -9 -6 -15t-15 -6h-214q-9 0 -15 6t-6 15v175q0 10 6 18t15 8h214q9 0 15 -8t6 -18v-175v0zM640 567zM640 26q0 -10 -6 -16t-15 -6h-214q-9 -3 -15 4t-6 18v175q0 9 6 15t15 6h214q9 0 15 -6t6 -15v-175v0zM640 26zM1024 26q0 -10 -6 -16t-15 -6h-214
q-9 0 -15 6t-6 16v175q0 9 6 15t15 6h214q9 0 15 -6t6 -15v-175v0zM1024 26zM256 26q0 -10 -6 -18t-15 -8h-214q-9 0 -15 8t-6 18v175q0 9 6 15t15 6h214q9 0 15 -6t6 -15v-175v0zM256 26zM550 448v64h-76v-64h-380v-81v-4v-107h72v107h308v-107h76v107h303v-107h77v107v4
v81h-380zM550 448z" />
    </font>
</defs>
</svg>
